<svg width="571" height="196" viewBox="0 0 571 196" fill="none" xmlns="http://www.w3.org/2000/svg">
<path d="M14.7136 103.44C8.13986 98.3877 0 84.5916 0 84.5916V195.5H571V0C542.981 11.5 534.723 52.2892 516.478 52.2892C498.233 52.2892 494.021 22.5423 467.809 22.5423C441.597 22.5423 423.236 91.4504 400.219 91.4504C377.202 91.4504 371.622 42.0538 330.595 42.0538C289.568 42.0538 276.947 86.2215 260.424 86.2215C243.9 86.2215 243.914 61.0782 224.736 61.0782C205.558 61.0782 198.788 106.358 181.385 106.358C163.982 106.358 142.75 28.0596 114.249 28.0596C85.7476 28.0596 63.4117 111.083 37.216 111.083C27.0024 110.952 20.6457 108 14.7136 103.44Z" fill="url(#paint0_linear_36_2463)"/>
<defs>
<linearGradient id="paint0_linear_36_2463" x1="285.5" y1="0" x2="285.5" y2="195.5" gradientUnits="userSpaceOnUse">
<stop stop-color="#34A853" stop-opacity="0.43"/>
<stop offset="1" stop-color="#34A853" stop-opacity="0"/>
</linearGradient>
</defs>
</svg>
