<svg width="66" height="66" viewBox="0 0 66 66" fill="none" xmlns="http://www.w3.org/2000/svg">
<path d="M61.4001 24.1998L60.2001 23.2998C56.6001 20.5998 35.6001 26.4998 23.4001 29.7998C21.4001 29.5998 16.6001 28.9998 15.1001 28.1998C13.6001 27.3998 10.2001 24.2998 6.00009 19.7998C3.90009 17.5998 0.400094 19.9998 1.60009 22.6998L6.80009 34.2998C6.60009 34.3998 6.50009 34.5998 6.40009 34.7998C6.20009 35.4998 6.30009 36.1998 6.70009 36.7998C8.30009 38.9998 14.2001 39.2998 21.7001 39.3998C24.1001 39.3998 26.4001 39.3998 29.5001 38.9998L25.0001 45.3998C24.8001 45.6998 24.8001 46.0998 24.9001 46.4998C25.1001 46.7998 25.5001 46.9998 25.8001 46.9998L31.8001 46.6998C32.0001 46.6998 32.3001 46.5998 32.5001 46.3998L43.0001 36.0998C46.6001 35.1998 50.6001 34.0998 55.7001 32.7998C59.5001 32.1998 63.0001 29.9998 64.2001 28.0998C65.6001 25.9998 63.8001 24.5998 61.4001 24.1998ZM4.50009 21.1998C7.10009 23.9998 11.8001 28.7998 14.2001 29.9998C15.1001 30.4998 16.8001 30.8998 18.4001 31.0998C17.2001 31.3998 16.0001 31.6998 14.8001 32.0998C13.3001 31.5998 12.2001 31.1998 7.30009 25.2998C7.10009 25.0998 6.80009 25.0998 6.60009 25.1998C6.40009 25.3998 6.40009 25.6998 6.50009 25.8998C8.10009 27.7998 11.1001 31.3998 13.2001 32.4998C11.7001 32.8998 10.2001 33.2998 8.70009 33.6998L3.40009 21.8998C3.10009 21.1998 4.00009 20.5998 4.50009 21.1998ZM31.5001 44.7998L27.9001 44.9998L33.6001 36.7998C35.6001 35.4998 38.4001 34.6998 42.1001 34.3998L31.5001 44.7998ZM55.4001 30.7998C55.4001 30.7998 49.7001 32.3998 45.6001 33.3998C45.6001 33.1998 45.6001 32.9998 45.5001 32.7998C45.3001 32.3998 45.0001 32.1998 44.6001 32.1998C39.0001 32.3998 35.1001 33.2998 32.3001 35.1998C32.2001 35.2998 32.1001 35.3998 32.0001 35.4998L31.1001 36.7998C27.7001 37.3998 24.9001 37.5998 21.8001 37.4998C18.0001 37.3998 10.2001 37.2998 8.60009 35.8998C27.7001 30.8998 54.4001 22.8998 59.1001 25.0998L60.4001 26.0998C60.5001 26.1998 60.7001 26.2998 60.8001 26.2998C61.8001 26.4998 62.4001 26.5998 62.6001 26.8998C62.3001 27.6998 59.3001 30.1998 55.4001 30.7998Z" fill="#21334F"/>
<path d="M22.5 33.6002L19.4 34.5002C19.1 34.6002 19 34.8002 19 35.1002C19.1 35.4002 19.3 35.5002 19.6 35.5002L22.7 34.6002C23 34.5002 23.1 34.3002 23.1 34.0002C23 33.6002 22.8 33.5002 22.5 33.6002ZM27.8 32.3002C26.8 32.5002 25.9 32.8002 25 33.0002C24.7 33.1002 24.6 33.3002 24.6 33.6002C24.7 33.9002 24.9 34.0002 25.2 34.0002C26.1 33.8002 27.1 33.5002 28 33.3002C28.3 33.2002 28.4 33.0002 28.4 32.7002C28.3 32.4002 28 32.3002 27.8 32.3002ZM33.2 31.1002C32.3 31.3002 31.3 31.6002 30.4 31.8002C30.1 31.9002 30 32.1002 30 32.4002C30.1 32.7002 30.3 32.8002 30.6 32.8002C31.5 32.6002 32.5 32.3002 33.4 32.1002C33.7 32.0002 33.8 31.8002 33.8 31.5002C33.7 31.2002 33.5 31.0002 33.2 31.1002ZM38.6 29.8002C37.7 30.0002 36.6 30.3002 35.7 30.5002C35.4 30.6002 35.3 30.8002 35.3 31.1002C35.4 31.4002 35.6 31.5002 35.9 31.5002C36.8 31.3002 37.9 31.0002 38.7 30.8002C39 30.7002 39.1 30.5002 39.1 30.2002C39.2 29.9002 38.9 29.8002 38.6 29.8002ZM44.1 28.6002C43.2 28.8002 42.1 29.0002 41.2 29.2002C40.9 29.3002 40.8 29.5002 40.8 29.8002C40.9 30.1002 41.1 30.2002 41.4 30.2002C42.3 30.0002 43.4 29.7002 44.3 29.6002C44.6 29.5002 44.7 29.3002 44.7 29.0002C44.6 28.7002 44.4 28.5002 44.1 28.6002ZM49.5 27.3002C48.6 27.5002 47.6 27.6002 46.6 27.9002C46.3 28.0002 46.2 28.2002 46.2 28.5002C46.3 28.8002 46.5 28.9002 46.8 28.9002C47.8 28.7002 48.8 28.5002 49.7 28.4002C50 28.4002 50.2 28.1002 50.1 27.8002C50.1 27.5002 49.8 27.3002 49.5 27.3002ZM54.7 26.2002C54 26.3002 53.3 26.4002 52.5 26.5002C52.2 26.5002 52 26.8002 52.1 27.1002C52.1 27.4002 52.4 27.6002 52.7 27.5002C53.5 27.4002 54.2 27.3002 54.9 27.2002C55.2 27.2002 55.4 26.9002 55.4 26.7002C55.2 26.4002 54.9 26.2002 54.7 26.2002ZM36.3 37.2002C36.1 37.0002 35.8 37.0002 35.6 37.2002L31.6 41.1002C31.4 41.3002 31.4 41.6002 31.6 41.8002C31.8 42.0002 32.1 42.0002 32.3 41.8002L36.3 37.9002C36.4 37.7002 36.4 37.4002 36.3 37.2002Z" fill="#21334F"/>
</svg>
