<svg width="24" height="24" viewBox="0 0 24 24" fill="none" xmlns="http://www.w3.org/2000/svg">
<g id="assignment_ind" clip-path="url(#clip0_148_8778)">
<path id="Vector" d="M14.3499 3.17022L14.4693 3.5H14.82H19C19.8239 3.5 20.5 4.17614 20.5 5V19C20.5 19.8239 19.8239 20.5 19 20.5H5C4.17614 20.5 3.5 19.8239 3.5 19V5C3.5 4.17614 4.17614 3.5 5 3.5H9.18H9.53073L9.65013 3.17022C10.0027 2.19634 10.9228 1.5 12 1.5C13.0772 1.5 13.9973 2.19634 14.3499 3.17022ZM18 19.5H18.5V19V17.6C18.5 16.9182 18.1559 16.3519 17.6874 15.9087C17.2214 15.4678 16.5992 15.1144 15.9436 14.839C14.6343 14.2891 13.0686 14 12 14C10.9314 14 9.36569 14.2891 8.05638 14.839C7.40076 15.1144 6.77862 15.4678 6.31261 15.9087C5.84414 16.3519 5.5 16.9182 5.5 17.6V19V19.5H6H18ZM13.5 4C13.5 3.17386 12.8261 2.5 12 2.5C11.1739 2.5 10.5 3.17386 10.5 4C10.5 4.82614 11.1739 5.5 12 5.5C12.8261 5.5 13.5 4.82614 13.5 4ZM15.5 10C15.5 8.06386 13.9361 6.5 12 6.5C10.0639 6.5 8.5 8.06386 8.5 10C8.5 11.9361 10.0639 13.5 12 13.5C13.9361 13.5 15.5 11.9361 15.5 10Z" fill="white" stroke="white"/>
</g>
<defs>
<clipPath id="clip0_148_8778">
<rect width="24" height="24" fill="white"/>
</clipPath>
</defs>
</svg>
