<svg width="32" height="32" viewBox="0 0 32 32" fill="none" xmlns="http://www.w3.org/2000/svg">
<path fill-rule="evenodd" clip-rule="evenodd" d="M24.0001 15.9998C24.0001 16.265 23.8947 16.5194 23.7072 16.7069C23.5196 16.8944 23.2653 16.9998 23.0001 16.9998H11.4141L15.7081 21.2918C15.8011 21.3848 15.8748 21.4952 15.9251 21.6166C15.9754 21.7381 16.0013 21.8683 16.0013 21.9998C16.0013 22.1313 15.9754 22.2615 15.9251 22.383C15.8748 22.5044 15.8011 22.6148 15.7081 22.7078C15.6151 22.8008 15.5047 22.8745 15.3832 22.9248C15.2618 22.9752 15.1316 23.0011 15.0001 23.0011C14.8686 23.0011 14.7384 22.9752 14.6169 22.9248C14.4954 22.8745 14.3851 22.8008 14.2921 22.7078L8.29208 16.7078C8.19895 16.6149 8.12507 16.5046 8.07465 16.3831C8.02424 16.2616 7.99829 16.1313 7.99829 15.9998C7.99829 15.8683 8.02424 15.738 8.07465 15.6165C8.12507 15.495 8.19895 15.3847 8.29208 15.2918L14.2921 9.2918C14.4799 9.10403 14.7345 8.99854 15.0001 8.99854C15.2656 8.99854 15.5203 9.10403 15.7081 9.2918C15.8959 9.47957 16.0013 9.73425 16.0013 9.9998C16.0013 10.2654 15.8959 10.52 15.7081 10.7078L11.4141 14.9998H23.0001C23.2653 14.9998 23.5196 15.1052 23.7072 15.2927C23.8947 15.4802 24.0001 15.7346 24.0001 15.9998Z" fill="#21334F"/>
</svg>
