<svg width="64" height="64" viewBox="0 0 64 64" fill="none" xmlns="http://www.w3.org/2000/svg">
<path d="M53.3333 8H10.6666C9.2521 8 7.89554 8.5619 6.89535 9.5621C5.89515 10.5623 5.33325 11.9188 5.33325 13.3333V18.6667C5.33887 19.5974 5.58797 20.5105 6.05578 21.3151C6.5236 22.1198 7.19385 22.788 7.99992 23.2533V50.6667C7.99992 52.0812 8.56182 53.4377 9.56202 54.4379C10.5622 55.4381 11.9188 56 13.3333 56H50.6666C52.0811 56 53.4376 55.4381 54.4378 54.4379C55.438 53.4377 55.9999 52.0812 55.9999 50.6667V23.2533C56.806 22.788 57.4762 22.1198 57.9441 21.3151C58.4119 20.5105 58.661 19.5974 58.6666 18.6667V13.3333C58.6666 11.9188 58.1047 10.5623 57.1045 9.5621C56.1043 8.5619 54.7477 8 53.3333 8ZM10.6666 13.3333H53.3333V18.6667H10.6666V13.3333ZM13.3333 50.6667V24H50.6666V50.6667H13.3333Z" fill="white"/>
<path d="M21.3333 29.3335H42.6666V34.6668H21.3333V29.3335Z" fill="white"/>
</svg>
