<svg width="64" height="64" viewBox="0 0 64 64" fill="none" xmlns="http://www.w3.org/2000/svg">
<g clip-path="url(#clip0_19_1871)">
<path d="M58.96 21.4932C59.2229 21.4932 59.4753 21.3897 59.6624 21.205C59.8496 21.0204 59.9565 20.7694 59.96 20.5065V14.5732C59.96 14.0534 59.7535 13.5548 59.3859 13.1873C59.0184 12.8197 58.5198 12.6132 58 12.6132H41.6533C41.1335 12.6132 40.635 12.8197 40.2674 13.1873C39.8998 13.5548 39.6933 14.0534 39.6933 14.5732V19.6932C38.0933 17.8932 36.2 16.0265 35.4933 15.3332L35.28 15.1199C34.8781 14.7257 34.4305 14.381 33.9467 14.0932C34.919 13.4057 35.709 12.4915 36.248 11.4296C36.7871 10.3678 37.0589 9.19052 37.04 7.99986V6.78652L40.8533 6.14652C40.9837 6.12715 41.1088 6.08186 41.2213 6.01335C41.3338 5.94483 41.4315 5.85447 41.5086 5.74759C41.5856 5.64071 41.6405 5.51949 41.6699 5.39107C41.6994 5.26264 41.7028 5.12962 41.68 4.99986C41.6375 4.73823 41.4928 4.5042 41.2778 4.34919C41.0628 4.19418 40.795 4.13088 40.5333 4.17319L36.92 4.77319L36.8133 3.81319C36.6892 2.67821 36.1195 1.63895 35.2294 0.923876C34.3393 0.208804 33.2017 -0.123557 32.0667 -0.000143047L27.7067 0.506524C26.5765 0.637139 25.544 1.20963 24.8345 2.09897C24.125 2.98832 23.7962 4.12227 23.92 5.25319L24.2 7.81319L24.3733 9.14652C24.4901 10.162 24.8365 11.1375 25.3863 11.9992C25.9361 12.8609 26.6749 13.5861 27.5467 14.1199C27.355 14.2336 27.1762 14.3677 27.0133 14.5199C26.5982 14.8911 26.2652 15.345 26.0356 15.8524C25.806 16.3598 25.6849 16.9096 25.68 17.4665C25.68 18.3865 26 20.9732 26.68 25.4665H22.6667C22.4014 25.4665 22.1471 25.5719 21.9596 25.7594C21.772 25.947 21.6667 26.2013 21.6667 26.4665C21.6667 26.7317 21.772 26.9861 21.9596 27.1736C22.1471 27.3612 22.4014 27.4665 22.6667 27.4665H30.3467C30.6119 27.4665 30.8662 27.3612 31.0538 27.1736C31.2413 26.9861 31.3467 26.7317 31.3467 26.4665C31.3467 26.2013 31.2413 25.947 31.0538 25.7594C30.8662 25.5719 30.6119 25.4665 30.3467 25.4665H28.7467C28.0667 20.9732 27.72 18.2532 27.72 17.4665C27.7196 17.1847 27.7788 16.906 27.8937 16.6486C28.0086 16.3912 28.1766 16.1611 28.3867 15.9732C28.7403 15.6675 29.1509 15.4348 29.5948 15.2883C30.0387 15.1419 30.5072 15.0846 30.9733 15.1199C32.0525 15.3063 33.0562 15.7966 33.8667 16.5332L34.0933 16.7599C34.8133 17.4665 36.76 19.4265 38.4133 21.2665L36.2933 23.5465L34.1333 21.6265C33.9339 21.4528 33.6745 21.3639 33.4104 21.3788C33.1463 21.3938 32.8985 21.5114 32.72 21.7065C32.6323 21.8045 32.5648 21.9188 32.5214 22.0429C32.478 22.1671 32.4594 22.2985 32.4669 22.4298C32.4743 22.5611 32.5076 22.6896 32.5647 22.808C32.6219 22.9264 32.7018 23.0324 32.8 23.1199L37.2 27.0399L37.4667 30.9732L32.0667 31.5199C31.9356 31.5315 31.8082 31.5692 31.692 31.6307C31.5757 31.6923 31.473 31.7765 31.3897 31.8784C31.3065 31.9803 31.2445 32.0977 31.2073 32.2239C31.1701 32.3501 31.1586 32.4825 31.1733 32.6132C31.1964 32.8596 31.3101 33.0887 31.4923 33.2562C31.6746 33.4237 31.9125 33.5176 32.16 33.5199H32.2667L37.6 32.9732L37.6933 34.4932C37.7055 34.6613 37.7595 34.8237 37.8503 34.9658C37.9411 35.1078 38.0658 35.2249 38.2133 35.3065L47.5467 40.3199C47.7435 40.4247 47.9141 40.5727 48.0457 40.7528C48.1773 40.9329 48.2665 41.1404 48.3067 41.3599L50.9733 56.9065L49.44 57.1865C49.1783 57.236 48.947 57.3875 48.797 57.6075C48.647 57.8275 48.5905 58.0982 48.64 58.3599C48.6895 58.6215 48.8409 58.8528 49.061 59.0029C49.281 59.1529 49.5517 59.2094 49.8133 59.1599L53.0267 58.5599C53.0906 58.5419 53.1575 58.537 53.2234 58.5455C53.2892 58.554 53.3527 58.5757 53.41 58.6093C53.4672 58.6429 53.5171 58.6878 53.5567 58.7411C53.5962 58.7945 53.6245 58.8553 53.64 58.9199L53.7733 59.8265L47.9333 60.8932L44.7333 43.6799C44.659 43.3547 44.4944 43.0571 44.2586 42.8213C44.0227 42.5854 43.7251 42.4209 43.4 42.3465C39.9333 41.6399 35.7333 40.5465 34.3467 39.5732C31.2667 37.4265 30.24 35.2799 30.12 34.3465C30.12 33.9999 29.9733 33.3732 29.8 32.3065L29.3867 29.6399C29.3337 29.3896 29.1868 29.1692 28.9763 29.024C28.7657 28.8788 28.5075 28.8197 28.2548 28.859C28.0021 28.8982 27.774 29.0329 27.6175 29.2352C27.461 29.4374 27.3879 29.692 27.4133 29.9465L27.8267 32.6132C27.96 33.5065 28.0533 34.0799 28.1067 34.4399L25.5333 46.0932C25.5194 46.1655 25.4819 46.2311 25.4267 46.2799L15.76 53.9199L13.52 55.4265C13.47 55.4545 13.4249 55.4905 13.3867 55.5332C13.0815 55.8199 12.8904 56.2074 12.8487 56.6241C12.807 57.0407 12.9176 57.4584 13.16 57.7999L17.3333 63.5865C17.4279 63.7134 17.5505 63.8168 17.6916 63.8885C17.8326 63.9602 17.9884 63.9983 18.1467 63.9999C18.3466 64.0001 18.5419 63.9397 18.7067 63.8265L20.2933 62.7599C20.8012 62.4078 21.1565 61.8763 21.2877 61.2724C21.4189 60.6686 21.316 60.0375 21 59.5065L31.8667 50.8265C32.1964 50.5624 32.4458 50.2115 32.5867 49.8132L35.08 43.6799C35.1808 43.4341 35.1798 43.1583 35.0773 42.9133C34.9748 42.6683 34.7791 42.474 34.5333 42.3732C34.2876 42.2724 34.0118 42.2734 33.7668 42.3759C33.5217 42.4784 33.3274 42.6741 33.2267 42.9199L30.6667 49.1199C30.6874 49.1895 30.6874 49.2636 30.6667 49.3332L19.08 58.5865L18.9733 58.7199L18.84 58.8665L18.7733 59.0532C18.7733 59.0532 18.7733 59.1732 18.7733 59.2265C18.7667 59.293 18.7667 59.36 18.7733 59.4265C18.7667 59.4886 18.7667 59.5511 18.7733 59.6132C18.7943 59.6777 18.8211 59.7402 18.8533 59.7999V59.9599L19.2267 60.4665C19.2759 60.5127 19.3152 60.5684 19.342 60.6303C19.3688 60.6923 19.3827 60.759 19.3827 60.8265C19.3827 60.894 19.3688 60.9608 19.342 61.0227C19.3152 61.0846 19.2759 61.1404 19.2267 61.1865L18.4667 61.6932L15 56.8665L16 55.9999L17.0133 57.3999C17.0833 57.5164 17.1763 57.6175 17.2866 57.697C17.3969 57.7764 17.5223 57.8325 17.655 57.8618C17.7878 57.8911 17.9251 57.8931 18.0587 57.8676C18.1922 57.842 18.3191 57.7895 18.4317 57.7133C18.5442 57.637 18.6401 57.5386 18.7133 57.4241C18.7865 57.3096 18.8357 57.1813 18.8577 57.0471C18.8796 56.913 18.8741 56.7757 18.8412 56.6438C18.8084 56.5119 18.749 56.388 18.6667 56.2799L17.64 54.8665L26.6667 47.7865C27.0846 47.4479 27.3759 46.9781 27.4933 46.4532L29.4533 37.5332C30.4903 38.9359 31.757 40.1531 33.2 41.1332C35.16 42.4665 40.4667 43.7065 42.84 44.1999L46.0933 61.6932C46.2083 62.045 46.4312 62.3516 46.7304 62.5694C47.0296 62.7872 47.3899 62.9052 47.76 62.9065H48.0533L55.1333 61.5732C55.389 61.5276 55.6164 61.383 55.7661 61.1708C55.9159 60.9587 55.976 60.696 55.9333 60.4399L55.6533 58.5465C55.5484 57.9337 55.2147 57.3835 54.7197 57.0073C54.2246 56.6311 53.6052 56.4569 52.9867 56.5199L50.32 40.9599C50.234 40.4417 50.0291 39.9506 49.7214 39.5249C49.4138 39.0993 49.0117 38.7507 48.5467 38.5065L39.72 33.7465L39.3333 28.9332L39.5467 29.1065C39.5893 29.1536 39.6388 29.194 39.6933 29.2265V30.8799C39.6933 31.3997 39.8998 31.8982 40.2674 32.2658C40.635 32.6334 41.1335 32.8399 41.6533 32.8399H58.9867C59.2519 32.8399 59.5062 32.7345 59.6938 32.547C59.8813 32.3594 59.9867 32.1051 59.9867 31.8399C59.9867 31.5746 59.8813 31.3203 59.6938 31.1327C59.5062 30.9452 59.2519 30.8399 58.9867 30.8399H41.72V29.7999C45.9467 29.5999 52.16 29.3065 53.0133 29.2932L54.5867 29.5732C54.6482 29.5861 54.7118 29.5861 54.7733 29.5732H59C59.2629 29.5697 59.5138 29.4628 59.6985 29.2756C59.8832 29.0885 59.9867 28.8361 59.9867 28.5732V23.5865C59.9882 23.4518 59.9617 23.3183 59.9089 23.1943C59.8561 23.0704 59.7782 22.9588 59.68 22.8665C59.5844 22.7708 59.4696 22.6964 59.3433 22.6481C59.2169 22.5999 59.0817 22.5789 58.9467 22.5865L55.3467 22.7065C55.1771 22.703 55.0102 22.7494 54.8667 22.8399L53.6133 23.5732L43.0133 23.2132C42.8665 23.1984 42.7295 23.1323 42.6267 23.0265L41.7067 22.1199C41.7067 22.1199 41.7067 22.1199 41.7067 22.0399V14.6132H46.5067V18.3199C46.5067 18.5851 46.612 18.8394 46.7996 19.027C46.9871 19.2145 47.2414 19.3199 47.5067 19.3199H52.2C52.4652 19.3199 52.7196 19.2145 52.9071 19.027C53.0946 18.8394 53.2 18.5851 53.2 18.3199V14.5865H58.0133V20.5199C58.0197 20.7715 58.1207 21.0114 58.2962 21.1918C58.4716 21.3722 58.7087 21.4798 58.96 21.4932ZM28 2.49319L32.36 2.01319H32.6133C33.1565 2.03259 33.6757 2.24212 34.0802 2.6052C34.4847 2.96829 34.7489 3.46188 34.8267 3.99986L34.9467 5.05319L26.08 6.54652L25.9067 5.02652C25.8754 4.72232 25.905 4.41494 25.9937 4.12227C26.0824 3.8296 26.2283 3.55748 26.4231 3.32174C26.6179 3.08601 26.8576 2.89135 27.1284 2.74911C27.3991 2.60687 27.6954 2.51988 28 2.49319ZM26.3733 8.87986V8.53319L35.08 7.10652V7.90652C34.8 12.7465 31.3333 13.0799 30.7867 13.0932C29.6723 13.0242 28.6181 12.5635 27.8105 11.7925C27.0029 11.0215 26.4939 9.98987 26.3733 8.87986ZM42.8533 25.1999L53.8 25.5865C53.9914 25.5977 54.1818 25.5512 54.3467 25.4532L55.68 24.6932L58 24.6132V27.5999H54.8667L53.2933 27.3199H53.0667C52.4267 27.3199 42.5733 27.7865 41.48 27.8265C41.2617 27.8247 41.0504 27.7496 40.88 27.6132L38.8667 25.8265L38.7733 25.7465L37.7867 24.8665L39.6267 22.8932L41.2 24.4399C41.645 24.8792 42.2302 25.1482 42.8533 25.1999ZM51.1467 17.3332H48.48V14.6665H51.1467V17.3332Z" fill="#21334F"/>
<path d="M15.0534 36.1467C14.7882 36.1467 14.5338 36.252 14.3463 36.4396C14.1587 36.6271 14.0534 36.8815 14.0534 37.1467C14.0534 37.4119 14.1587 37.6662 14.3463 37.8538C14.5338 38.0413 14.7882 38.1467 15.0534 38.1467H20.6134C20.8786 38.1467 21.1329 38.0413 21.3205 37.8538C21.508 37.6662 21.6134 37.4119 21.6134 37.1467C21.6134 36.8815 21.508 36.6271 21.3205 36.4396C21.1329 36.252 20.8786 36.1467 20.6134 36.1467H15.0534ZM19.2534 31.8267C19.2552 31.6949 19.2305 31.564 19.1809 31.4419C19.1313 31.3197 19.0577 31.2088 18.9645 31.1156C18.8713 31.0224 18.7603 30.9488 18.6382 30.8991C18.516 30.8495 18.3852 30.8249 18.2534 30.8267H5.04004C4.77482 30.8267 4.52047 30.932 4.33293 31.1196C4.1454 31.3071 4.04004 31.5615 4.04004 31.8267C4.04004 32.0919 4.1454 32.3462 4.33293 32.5338C4.52047 32.7213 4.77482 32.8267 5.04004 32.8267H18.2534C18.5186 32.8267 18.7729 32.7213 18.9605 32.5338C19.148 32.3462 19.2534 32.0919 19.2534 31.8267ZM11.72 22.1733H22.6667C22.9319 22.1733 23.1863 22.068 23.3738 21.8804C23.5613 21.6929 23.6667 21.4386 23.6667 21.1733C23.6667 20.9081 23.5613 20.6538 23.3738 20.4662C23.1863 20.2787 22.9319 20.1733 22.6667 20.1733H11.72C11.4548 20.1733 11.2005 20.2787 11.0129 20.4662C10.8254 20.6538 10.72 20.9081 10.72 21.1733C10.72 21.4386 10.8254 21.6929 11.0129 21.8804C11.2005 22.068 11.4548 22.1733 11.72 22.1733Z" fill="#21334F"/>
</g>
<defs>
<clipPath id="clip0_19_1871">
<rect width="64" height="64" fill="white"/>
</clipPath>
</defs>
</svg>
