<svg width="64" height="64" viewBox="0 0 64 64" fill="none" xmlns="http://www.w3.org/2000/svg">
<path d="M17.4545 49.4545C18.2579 49.4545 18.9091 48.8033 18.9091 48C18.9091 47.1966 18.2579 46.5454 17.4545 46.5454C16.6512 46.5454 16 47.1966 16 48C16 48.8033 16.6512 49.4545 17.4545 49.4545Z" fill="#21334F"/>
<path d="M50.9091 49.4545C51.7125 49.4545 52.3637 48.8033 52.3637 48C52.3637 47.1966 51.7125 46.5454 50.9091 46.5454C50.1058 46.5454 49.4546 47.1966 49.4546 48C49.4546 48.8033 50.1058 49.4545 50.9091 49.4545Z" fill="#21334F"/>
<path d="M43.6364 36.3637C44.4398 36.3637 45.091 35.7125 45.091 34.9091C45.091 34.1058 44.4398 33.4546 43.6364 33.4546C42.8331 33.4546 42.1819 34.1058 42.1819 34.9091C42.1819 35.7125 42.8331 36.3637 43.6364 36.3637Z" fill="#21334F"/>
<path d="M1.45455 55.2729C2.25787 55.2729 2.90909 54.6216 2.90909 53.8183C2.90909 53.015 2.25787 52.3638 1.45455 52.3638C0.651222 52.3638 0 53.015 0 53.8183C0 54.6216 0.651222 55.2729 1.45455 55.2729Z" fill="#21334F"/>
<path d="M62.2545 32.8725L57.9651 29.6565L54.4087 18.9772C53.8007 17.1969 52.1367 15.9998 50.2691 15.9998H40.7273V13.0907C40.7273 10.6849 38.7695 8.72705 36.3636 8.72705H4.36364C1.95782 8.72705 0 10.6849 0 13.0907V45.0907C0 47.4965 1.95782 49.4543 4.36364 49.4543H10.3287C10.5484 50.5351 11.0284 51.514 11.6713 52.3634H5.81818C5.01382 52.3634 4.36364 53.0151 4.36364 53.818C4.36364 54.6209 5.01382 55.2725 5.81818 55.2725H17.4545C20.9658 55.2725 23.904 52.7692 24.5804 49.4543H43.7833C44.0029 50.5351 44.4829 51.514 45.1258 52.3634H42.1818C41.3775 52.3634 40.7273 53.0151 40.7273 53.818C40.7273 54.6209 41.3775 55.2725 42.1818 55.2725H50.9091C54.4204 55.2725 57.3585 52.7692 58.0349 49.4543H59.6364C62.0422 49.4543 64 47.4965 64 45.0907V36.3634C64 35.0078 63.3513 33.7045 62.2545 32.8725ZM17.4545 52.3634C15.0487 52.3634 13.0909 50.4056 13.0909 47.9998C13.0909 45.594 15.0487 43.6361 17.4545 43.6361C19.8604 43.6361 21.8182 45.594 21.8182 47.9998C21.8182 50.4056 19.8604 52.3634 17.4545 52.3634ZM37.8182 46.5452H24.5804C23.904 43.2303 20.9673 40.7271 17.4545 40.7271C13.9418 40.7271 11.0051 43.2303 10.3287 46.5452H4.36364C3.56073 46.5452 2.90909 45.8921 2.90909 45.0907V37.818H37.8182V46.5452ZM37.8182 34.9089H2.90909V13.0907C2.90909 12.2892 3.56073 11.6361 4.36364 11.6361H36.3636C37.1665 11.6361 37.8182 12.2892 37.8182 13.0907V34.9089ZM40.7273 18.9089H50.2691C50.8931 18.9089 51.4502 19.3147 51.6524 19.9067L54.7098 29.0907H51.808L52.2095 28.2863C52.5687 27.5678 52.2778 26.6936 51.5593 26.3343C50.8422 25.975 49.968 26.266 49.6073 26.9845L48.5556 29.0907H40.7273V18.9089ZM50.9091 52.3634C48.5033 52.3634 46.5455 50.4056 46.5455 47.9998C46.5455 45.594 48.5033 43.6361 50.9091 43.6361C53.3149 43.6361 55.2727 45.594 55.2727 47.9998C55.2727 50.4056 53.3149 52.3634 50.9091 52.3634ZM61.0909 45.0907C61.0909 45.8921 60.4393 46.5452 59.6364 46.5452H58.0349C57.3585 43.2303 54.4218 40.7271 50.9091 40.7271C47.3964 40.7271 44.4596 43.2303 43.7833 46.5452H40.7273V31.9998H56.2429L60.5033 35.194C60.8713 35.4747 61.0909 35.9111 61.0909 36.3634V45.0907Z" fill="#21334F"/>
</svg>
