<svg width="44" height="44" viewBox="0 0 44 44" fill="none" xmlns="http://www.w3.org/2000/svg">
<path d="M20 15.5C20.552 15.5 21 15.053 21 14.5C21 13.947 20.552 13.5 20 13.5H16C15.448 13.5 15 13.947 15 14.5C15 15.053 15.448 15.5 16 15.5H20Z" fill="#21334F"/>
<path d="M23 15.5C23.5523 15.5 24 15.0523 24 14.5C24 13.9477 23.5523 13.5 23 13.5C22.4477 13.5 22 13.9477 22 14.5C22 15.0523 22.4477 15.5 23 15.5Z" fill="#21334F"/>
<path d="M11 29.5H7C6.448 29.5 6 29.947 6 30.5C6 31.053 6.448 31.5 7 31.5H11C11.552 31.5 12 31.053 12 30.5C12 29.947 11.552 29.5 11 29.5Z" fill="#21334F"/>
<path d="M14 31.5C14.5523 31.5 15 31.0523 15 30.5C15 29.9477 14.5523 29.5 14 29.5C13.4477 29.5 13 29.9477 13 30.5C13 31.0523 13.4477 31.5 14 31.5Z" fill="#21334F"/>
<path d="M29 29.5H25C24.448 29.5 24 29.947 24 30.5C24 31.053 24.448 31.5 25 31.5H29C29.552 31.5 30 31.053 30 30.5C30 29.947 29.552 29.5 29 29.5Z" fill="#21334F"/>
<path d="M32 31.5C32.5523 31.5 33 31.0523 33 30.5C33 29.9477 32.5523 29.5 32 29.5C31.4477 29.5 31 29.9477 31 30.5C31 31.0523 31.4477 31.5 32 31.5Z" fill="#21334F"/>
<path d="M43 33.5H41V18.5C41 17.947 40.552 17.5 40 17.5H34H32V2.5C32 1.947 31.552 1.5 31 1.5H25H19H13C12.448 1.5 12 1.947 12 2.5V17.5H10H4C3.448 17.5 3 17.947 3 18.5V33.5H1C0.448 33.5 0 33.947 0 34.5V37.5V40.5C0 41.053 0.448 41.5 1 41.5H5C5.552 41.5 6 41.053 6 40.5V38.5H19V40.5C19 41.053 19.448 41.5 20 41.5H24C24.552 41.5 25 41.053 25 40.5V38.5H38V40.5C38 41.053 38.448 41.5 39 41.5H43C43.552 41.5 44 41.053 44 40.5V37.5V34.5C44 33.947 43.552 33.5 43 33.5ZM34 25.5C34.207 25.5 34.412 25.436 34.584 25.312C34.846 25.123 35 24.821 35 24.5V19.5H39V33.5H23V19.5H27V24.5C27 24.821 27.154 25.123 27.416 25.312C27.676 25.5 28.011 25.551 28.317 25.449L31 24.554L33.684 25.449C33.787 25.483 33.894 25.5 34 25.5ZM33 23.112L31.316 22.551C31.213 22.518 31.107 22.5 31 22.5C30.893 22.5 30.787 22.518 30.684 22.552L29 23.112V19.5H31H33V23.112ZM20 3.5H24V7.112L22.316 6.551C22.213 6.518 22.107 6.5 22 6.5C21.893 6.5 21.787 6.518 21.684 6.552L20 7.112V3.5ZM14 3.5H18V8.5C18 8.821 18.154 9.123 18.416 9.312C18.677 9.5 19.011 9.552 19.317 9.449L22 8.554L24.684 9.449C24.787 9.483 24.894 9.5 25 9.5C25.207 9.5 25.412 9.436 25.584 9.312C25.846 9.123 26 8.821 26 8.5V3.5H30V17.5H28H22H16H14V3.5ZM11 19.5H13H15V23.112L13.316 22.551C13.213 22.518 13.107 22.5 13 22.5C12.893 22.5 12.787 22.518 12.684 22.552L11 23.112V19.5ZM5 19.5H9V24.5C9 24.821 9.154 25.123 9.416 25.312C9.676 25.5 10.012 25.551 10.317 25.449L13 24.554L15.684 25.449C15.787 25.483 15.894 25.5 16 25.5C16.207 25.5 16.412 25.436 16.584 25.312C16.846 25.123 17 24.821 17 24.5V19.5H21V33.5H5V19.5ZM4 39.5H2V38.5H4V39.5ZM23 39.5H21V38.5H23V39.5ZM42 39.5H40V38.5H42V39.5ZM42 36.5H2V35.5H42V36.5Z" fill="#21334F"/>
</svg>
