<svg width="64" height="64" viewBox="0 0 64 64" fill="none" xmlns="http://www.w3.org/2000/svg">
<path d="M19 6.24183C18.7742 6.24732 18.5568 6.32919 18.3834 6.47401C18.21 6.61882 18.0907 6.81805 18.045 7.03931C17.9993 7.26058 18.0299 7.49073 18.1318 7.69239C18.2337 7.89405 18.4008 8.0554 18.606 8.14991L20.394 9.01978C18.0175 9.77491 15.9348 11.2512 14.435 13.2434C12.9352 15.2356 12.0926 17.6452 12.024 20.1379C12.02 20.2579 12.032 20.3778 12.032 20.4978H10.02C7.82005 20.4978 6.02005 22.2978 6.02005 24.4978V39.5C6.02005 39.7652 6.1254 40.0195 6.31294 40.207C6.50048 40.3946 6.75483 40.5 7.02005 40.5C7.28526 40.5 7.53962 40.3946 7.72715 40.207C7.91469 40.0195 8.02005 39.7652 8.02005 39.5V24.4959C8.02005 23.3719 8.89405 22.4959 10.02 22.4959H12.206C12.6297 24.9391 13.7991 27.1912 15.5537 28.9434C17.3084 30.6955 19.5622 31.8618 22.006 32.282C24.852 32.7652 27.7769 32.2067 30.2445 30.7087C32.7122 29.2108 34.5574 26.8738 35.442 24.126C35.6099 23.5924 35.7402 23.0476 35.832 22.4959H40.02C41.144 22.4959 42.02 23.3719 42.02 24.4959V44.5C42.02 45.626 41.144 46.5 40.02 46.5H27.02C26.7548 46.5 26.5005 46.6052 26.3129 46.7927C26.1254 46.9803 26.02 47.2348 26.02 47.5C26.02 47.7652 26.1254 48.0195 26.3129 48.207C26.5005 48.3946 26.7548 48.5 27.02 48.5H40.02C42.218 48.5 44.02 46.7 44.02 44.5V28.4959H52.348C53.182 28.4959 53.618 28.7418 54.03 29.1558C54.358 29.4838 54.636 29.9679 54.898 30.4959H47.034C46.7688 30.4959 46.5145 30.6013 46.3269 30.7888C46.1394 30.9764 46.034 31.2306 46.034 31.4959C46.034 31.7611 46.1394 32.0154 46.3269 32.2029C46.5145 32.3904 46.7688 32.4959 47.034 32.4959H48.02V39.8159C48.0242 40.5261 48.3081 41.2061 48.8101 41.7085C49.3121 42.2109 49.9918 42.4953 50.702 42.5H60.02V45.5H58.418C58.3854 45.4984 58.3527 45.4984 58.32 45.5C58.0548 45.513 57.8056 45.6307 57.6273 45.8274C57.4489 46.0241 57.356 46.2836 57.369 46.5488C57.382 46.8141 57.4999 47.0634 57.6966 47.2417C57.8933 47.4201 58.1528 47.513 58.418 47.5H60.018V48.5C60.018 49.626 59.144 50.5 58.018 50.5H54.018C54.0138 49.0426 53.433 47.646 52.4025 46.6155C51.3719 45.5849 49.9754 45.0042 48.518 45C47.0607 45.0042 45.6642 45.5849 44.6336 46.6155C43.6031 47.646 43.0223 49.0426 43.018 50.5H25.018C25.0138 49.0426 24.433 47.646 23.4025 46.6155C22.3719 45.5849 20.9754 45.0042 19.518 45C18.0607 45.0042 16.6642 45.5849 15.6336 46.6155C14.6031 47.646 14.0223 49.0426 14.018 50.5H9.01805C8.88583 50.5033 8.75432 50.4795 8.6315 50.4304C8.50869 50.3813 8.39713 50.3079 8.30361 50.2144C8.21008 50.1208 8.13655 50.0093 8.08746 49.8865C8.03837 49.7637 8.01475 49.6322 8.01805 49.5V48.5H11.004C11.2693 48.5 11.5236 48.3946 11.7112 48.207C11.8987 48.0195 12.004 47.7652 12.004 47.5C12.004 47.2348 11.8987 46.9803 11.7112 46.7927C11.5236 46.6052 11.2693 46.5 11.004 46.5H3.02005C2.98607 46.4983 2.95202 46.4983 2.91805 46.5C2.78672 46.5066 2.65798 46.5389 2.53917 46.5952C2.42036 46.6515 2.3138 46.7306 2.22558 46.8281C2.13737 46.9256 2.06922 47.0395 2.02503 47.1633C1.98084 47.2872 1.96148 47.4185 1.96805 47.5498C1.97461 47.6811 2.00698 47.8099 2.0633 47.9287C2.11962 48.0475 2.19879 48.1542 2.29629 48.2424C2.3938 48.3307 2.50772 48.3987 2.63156 48.4429C2.75539 48.4871 2.88672 48.5066 3.01805 48.5H6.01805V49.5C6.01805 51.144 7.37405 52.5 9.01805 52.5H14.41C14.8134 53.528 15.5161 54.4111 16.4272 55.0352C17.3383 55.6592 18.4158 55.9954 19.52 56C21.838 56 23.822 54.54 24.628 52.5H43.408C43.8115 53.5283 44.5145 54.4116 45.426 55.0357C46.3375 55.6597 47.4154 55.9958 48.52 56C50.838 56 52.822 54.54 53.628 52.5H58.02C60.218 52.5 62.02 50.7 62.02 48.5V46.6599C62.0381 46.5513 62.0381 46.4404 62.02 46.3318V41.5C62.02 41.3572 61.9893 41.2159 61.93 41.0859L56.93 30.0859C56.584 29.3259 56.164 28.462 55.446 27.742C55.0376 27.3393 54.5532 27.0218 54.0211 26.8079C53.4889 26.594 52.9195 26.4879 52.346 26.4959H44.02V24.4959C44.02 22.2959 42.218 20.4959 40.02 20.4959H35.98C35.992 15.9979 33.5 11.7218 29.274 9.66383C29.1553 9.59681 29.0241 9.55475 28.8886 9.54029C28.753 9.52583 28.6159 9.53937 28.4857 9.57984C28.3555 9.62031 28.235 9.68688 28.1315 9.77564C28.028 9.8644 27.9438 9.97344 27.8839 10.096C27.8241 10.2185 27.79 10.3519 27.7836 10.488C27.7773 10.6242 27.7988 10.7604 27.847 10.8879C27.8951 11.0155 27.9688 11.1317 28.0636 11.2297C28.1584 11.3278 28.2722 11.4054 28.398 11.4578C30.563 12.5109 32.275 14.3103 33.2194 16.5249C34.1637 18.7395 34.2769 21.2206 33.538 23.512C32.8043 25.8035 31.2677 27.7528 29.2109 29.0015C27.1541 30.2502 24.7156 30.7141 22.344 30.3079C19.9707 29.9064 17.8222 28.6616 16.2935 26.8023C14.7649 24.9429 13.959 22.5942 14.024 20.188C14.0801 18.0466 14.8245 15.9801 16.1469 14.2949C17.4693 12.6098 19.2994 11.3954 21.366 10.8318L20.292 13.0398C20.2301 13.1584 20.1926 13.2881 20.1818 13.4214C20.1709 13.5547 20.1869 13.6889 20.2288 13.8159C20.2706 13.9429 20.3376 14.0602 20.4256 14.1609C20.5136 14.2616 20.621 14.3436 20.7413 14.4021C20.8616 14.4606 20.9924 14.4944 21.1259 14.5015C21.2595 14.5085 21.3931 14.4886 21.5189 14.4431C21.6446 14.3976 21.76 14.3272 21.8581 14.2363C21.9562 14.1454 22.0351 14.0357 22.09 13.9138L24.13 9.72584C24.2452 9.4876 24.2612 9.21343 24.1746 8.96339C24.088 8.71335 23.9059 8.50784 23.668 8.39185L19.48 6.35194C19.3321 6.27444 19.1671 6.23524 19 6.23792V6.24183ZM28.242 15.938C28.1147 15.9421 27.9902 15.9764 27.8789 16.0383C27.7676 16.1003 27.6727 16.1879 27.602 16.294L23.828 21.9299C23.7472 22.0503 23.7006 22.1904 23.6932 22.3352C23.6858 22.48 23.718 22.6242 23.7862 22.7522C23.8544 22.8802 23.9561 22.9871 24.0804 23.0618C24.2047 23.1364 24.347 23.1758 24.492 23.1758H27.464V24.2559C27.464 24.4683 27.5484 24.6721 27.6987 24.8223C27.8489 24.9725 28.0526 25.0569 28.265 25.0569C28.4775 25.0569 28.6812 24.9725 28.8314 24.8223C28.9817 24.6721 29.066 24.4683 29.066 24.2559V23.1758H30.152C30.3642 23.1758 30.5677 23.0917 30.7177 22.9417C30.8678 22.7916 30.952 22.5882 30.952 22.376C30.952 22.1638 30.8678 21.9603 30.7177 21.8103C30.5677 21.6603 30.3642 21.5759 30.152 21.5759H29.066V16.7378C29.0661 16.6307 29.0446 16.5247 29.0029 16.426C28.9612 16.3274 28.9002 16.2382 28.8233 16.1636C28.7465 16.089 28.6554 16.0305 28.5556 15.9917C28.4557 15.9529 28.3491 15.9348 28.242 15.938ZM19.946 15.938C19.5789 15.9128 19.2105 15.9632 18.8636 16.0862C18.5168 16.2092 18.1989 16.402 17.9296 16.6528C17.6604 16.9037 17.4455 17.2074 17.2983 17.5447C17.1512 17.882 17.0748 18.2458 17.074 18.6138C17.074 18.8259 17.1583 19.0294 17.3084 19.1795C17.4584 19.3295 17.6619 19.4138 17.874 19.4138C18.0862 19.4138 18.2897 19.3295 18.4397 19.1795C18.5898 19.0294 18.674 18.8259 18.674 18.6138C18.674 18.1238 19.002 17.6978 19.48 17.5698C19.6772 17.5155 19.8857 17.5183 20.0814 17.5776C20.2771 17.637 20.452 17.7506 20.5857 17.9053C20.7195 18.06 20.8067 18.2495 20.8372 18.4517C20.8677 18.6539 20.8402 18.8606 20.758 19.0479C20.7524 19.0597 20.7471 19.0719 20.742 19.084C20.536 19.624 19.778 20.2159 18.914 20.9539C18.048 21.6939 17.074 22.72 17.074 24.252C17.074 24.4641 17.1583 24.6676 17.3084 24.8176C17.4584 24.9677 17.6619 25.0518 17.874 25.0518H21.648C21.8602 25.0518 22.0637 24.9677 22.2137 24.8176C22.3638 24.6676 22.448 24.4641 22.448 24.252C22.448 24.0398 22.3638 23.8363 22.2137 23.6863C22.0637 23.5363 21.8602 23.4519 21.648 23.4519H19.168C19.384 23.0299 19.474 22.5819 19.952 22.1719C20.724 21.5139 21.758 20.8659 22.222 19.6719C22.55 18.9119 22.522 18.0219 22.09 17.2739C22.0887 17.2739 22.0874 17.2739 22.086 17.2739C21.8651 16.8938 21.5546 16.5734 21.1817 16.3406C20.8087 16.1078 20.3846 15.9696 19.946 15.938ZM27.466 19.3679V21.5698H25.992L27.464 19.3679H27.466ZM50.02 32.4959H55.832L59.468 40.5H50.702C50.6115 40.5031 50.5213 40.4874 50.437 40.4541C50.3527 40.4208 50.2762 40.3703 50.2122 40.3062C50.1482 40.242 50.0982 40.1654 50.0651 40.0811C50.032 39.9967 50.0167 39.9065 50.02 39.8159V32.4959ZM4.91805 42.5C4.78672 42.5066 4.65798 42.5389 4.53917 42.5952C4.42036 42.6515 4.3138 42.7306 4.22558 42.8281C4.13737 42.9256 4.06922 43.0395 4.02503 43.1633C3.98084 43.2872 3.96148 43.4185 3.96805 43.5498C3.97461 43.6811 4.00698 43.8099 4.0633 43.9287C4.11962 44.0475 4.19879 44.1542 4.29629 44.2424C4.3938 44.3307 4.50772 44.3987 4.63156 44.4429C4.7554 44.4871 4.88672 44.5066 5.01805 44.5H13.018C13.2833 44.5 13.5376 44.3946 13.7252 44.207C13.9127 44.0195 14.018 43.7652 14.018 43.5C14.018 43.2348 13.9127 42.9803 13.7252 42.7927C13.5376 42.6052 13.2833 42.5 13.018 42.5H5.01805C4.98473 42.4983 4.95136 42.4983 4.91805 42.5ZM19.518 47C21.464 47 23.018 48.556 23.018 50.5C23.018 52.446 21.464 54 19.518 54C17.574 54 16.018 52.446 16.018 50.5C16.018 48.556 17.574 47 19.518 47ZM48.518 47C50.464 47 52.018 48.556 52.018 50.5C52.018 52.446 50.464 54 48.518 54C46.574 54 45.018 52.446 45.018 50.5C45.018 48.556 46.574 47 48.518 47ZM19.518 48.9959C19.1202 48.9959 18.7387 49.154 18.4574 49.4353C18.1761 49.7166 18.018 50.098 18.018 50.4959C18.018 50.8937 18.1761 51.2753 18.4574 51.5566C18.7387 51.838 19.1202 51.9959 19.518 51.9959C19.9159 51.9959 20.2974 51.838 20.5787 51.5566C20.86 51.2753 21.018 50.8937 21.018 50.4959C21.018 50.098 20.86 49.7166 20.5787 49.4353C20.2974 49.154 19.9159 48.9959 19.518 48.9959ZM48.518 48.9959C48.1202 48.9959 47.7387 49.154 47.4574 49.4353C47.1761 49.7166 47.018 50.098 47.018 50.4959C47.018 50.8937 47.1761 51.2753 47.4574 51.5566C47.7387 51.838 48.1202 51.9959 48.518 51.9959C48.9159 51.9959 49.2974 51.838 49.5787 51.5566C49.86 51.2753 50.018 50.8937 50.018 50.4959C50.018 50.098 49.86 49.7166 49.5787 49.4353C49.2974 49.154 48.9159 48.9959 48.518 48.9959Z" fill="#21334F"/>
</svg>
