<svg width="64" height="64" viewBox="0 0 64 64" fill="none" xmlns="http://www.w3.org/2000/svg">
<path d="M32 2C15.432 2 2 15.432 2 32L2.001 32.053L2 32.106C2 48.616 15.357 62 31.835 62L31.899 61.998L32 62C48.568 62 62 48.568 62 32C62 15.432 48.568 2 32 2ZM60 32C60 34.394 59.698 36.717 59.134 38.934C58.873 38.754 58.183 39.498 58.013 38.512C57.8 37.288 56.42 36.438 55.677 37.023C54.934 37.608 52.811 39.309 52.706 40.373C52.599 41.436 51.696 42.712 51.273 41.81C50.847 40.906 49.575 38.087 49.627 37.343C49.679 36.599 49.041 37.609 48.089 36.12C47.133 34.631 45.488 35.906 44.161 35.162C42.834 34.417 41.348 33.407 40.604 33.089C39.863 32.769 41.931 36.066 42.197 35.641C42.464 35.216 43.524 35.96 43.843 35.96C44.162 35.96 45.01 36.704 44.48 37.396C43.95 38.088 39.227 40.962 38.749 40.214C38.269 39.466 35.459 33.673 34.98 34.028C34.502 34.383 37.953 40.426 38.537 40.798C39.119 41.171 40.872 40.852 41.72 40.48C42.57 40.108 39.969 44.628 38.856 45.16C37.742 45.691 36.84 47.34 37.316 48.084C37.794 48.828 37.847 51.647 36.84 52.02C35.83 52.391 35.459 52.976 35.777 53.668C36.094 54.358 35.035 55.527 34.557 56.272C34.078 57.016 32.222 58.558 32.062 58.984C31.904 59.41 29.622 59.303 28.718 59.303C27.817 59.303 28.506 58.186 28.399 57.23C28.295 56.272 27.499 55.368 27.499 54.89C27.499 54.411 27.232 53.294 26.862 52.763C26.491 52.23 26.383 51.22 26.755 50.636C27.128 50.05 27.392 48.35 26.651 47.605C25.907 46.861 25.057 45.584 25.642 44.574C26.226 43.564 25.005 43.671 23.997 43.191C22.988 42.712 20.918 43.351 19.857 43.511C18.795 43.67 17.735 43.245 17.416 42.712C17.098 42.181 16.408 40.852 15.701 40.532C14.996 40.214 15.4 38.831 15.824 38.3C16.25 37.769 15.4 36.758 15.824 36.331C16.25 35.906 16.514 34.365 17.363 34.028C18.213 33.692 18.053 33.461 18.079 32.663C18.106 31.865 19.034 31.865 19.192 31.44C19.352 31.014 19.829 30.802 20.787 30.802C21.742 30.802 23.359 30.243 24.129 30.057C24.899 29.871 26.226 29.605 26.119 30.35C26.013 31.094 26.04 31.944 26.543 31.944C27.048 31.944 27.738 32.237 28.534 32.733C29.33 33.228 29.356 32.823 29.463 32.264C29.57 31.705 30.683 31.918 31.835 32.45C32.987 32.982 34.558 32.609 35.06 32.557C35.565 32.502 35.778 30.988 35.645 30.483C35.511 29.978 34.716 30.722 34.212 30.403C33.708 30.085 33.017 30.483 32.514 30.03C32.009 29.579 31.929 28.515 32.514 28.489C33.097 28.462 33.39 28.276 33.734 27.878C34.08 27.479 35.38 27.24 35.884 27.638C36.387 28.037 37.132 28.303 37.581 27.851C38.032 27.4 36.681 26.523 36.387 26.283C36.095 26.044 36.334 25.273 36.043 25.273C35.75 25.273 35.511 25.405 35.671 25.778C35.83 26.15 34.822 26.814 34.661 26.443C34.503 26.07 34.238 25.353 33.84 25.353C33.443 25.353 32.912 27.161 32.885 27.453C32.858 27.746 32.168 28.224 31.612 28.224C31.056 28.224 31.056 28.863 31.347 29.156C31.639 29.448 31.426 30.618 30.896 30.685C30.365 30.753 30.179 30.565 30.1 30.112C30.021 29.661 29.49 29.714 29.463 28.783C29.436 27.852 28.852 27.401 28.481 26.975C28.11 26.549 27.154 25.3 26.783 25.859C26.412 26.418 28.11 27.614 28.56 27.932C29.013 28.251 28.933 28.942 28.694 29.102C28.455 29.262 28.004 30.565 27.739 30.67C27.472 30.776 27.219 30.274 27.219 30.274C26.821 30.115 27.775 29.636 27.935 29.397C28.093 29.158 26.264 27.483 25.934 27.004C25.604 26.525 24.194 27.402 23.558 27.084C22.921 26.766 21.965 28.28 21.887 29.157C21.806 30.035 20.771 30.273 19.816 30.273C18.862 30.273 18.224 29.556 18.544 28.838C18.862 28.12 18.384 26.924 18.942 26.844C19.499 26.765 21.089 26.844 21.408 25.967C21.726 25.09 19.895 24.292 20.613 24.133C21.328 23.973 22.444 22.858 23.24 22.219C24.034 21.581 24.114 20.784 24.83 20.728C25.548 20.673 24.672 19.347 25.309 18.949C25.947 18.55 26.105 20.385 26.583 20.385C27.061 20.385 28.014 20.225 28.811 20.624C29.608 21.023 29.846 20.225 30.165 19.187C30.483 18.151 31.279 17.592 32.87 16.795C34.462 15.997 31.041 17.034 30.403 16.236C29.766 15.438 30.642 13.683 31.041 12.444C31.439 11.204 29.767 13.683 28.891 14.96C28.014 16.236 29.13 16.794 29.049 17.671C28.97 18.549 27.539 19.585 27.539 19.585C26.902 19.665 26.981 18.389 26.663 17.831C26.344 17.273 25.786 17.512 24.91 18.15C24.034 18.788 23.955 16.635 23.717 15.757C23.48 14.881 25.15 13.763 25.935 13.167C26.719 12.569 28.014 9.696 29.448 7.464C30.882 5.231 32.951 6.347 33.508 7.225C34.067 8.101 35.497 7.543 36.852 9.139C38.206 10.734 36.533 11.451 35.023 10.803C33.508 10.155 35.34 12.409 36.214 13.047C37.09 13.684 37.568 11.611 37.887 11.133C38.205 10.654 39.398 10.894 40.273 9.617C41.15 8.341 43.139 8.581 44.275 8.721C45.412 8.862 45.129 8.022 44.413 7.335C43.883 6.827 44.967 7.272 46.243 7.895C54.476 12.768 60 21.737 60 32ZM20.042 22.472C19.778 22.199 20.309 21.124 20.547 20.805C20.787 20.486 19.883 20.592 19.938 21.045C19.991 21.496 19.592 22.188 19.035 22.374C18.478 22.56 17.843 22.506 18.16 22.001C18.477 21.496 18.186 21.044 17.947 20.565C17.709 20.086 19.273 19.794 19.593 19.502C19.911 19.21 19.09 19.023 19.115 18.572C19.142 18.119 19.328 17.721 19.644 17.668C19.963 17.615 20.261 17.411 20.547 17.429C21.424 17.483 21.156 19.476 21.476 20.115C21.794 20.752 22.697 21.524 22.617 22.081C22.537 22.64 22.367 22.959 21.717 22.799C21.064 22.639 20.019 23.623 19.619 23.437C19.22 23.25 20.309 22.745 20.042 22.472ZM14.324 11.291C15.121 11.689 15.756 10.967 16.312 10.812C16.971 10.63 17.347 12.966 16.711 12.886C16.074 12.806 15.358 14.162 14.438 14.082C13.517 14.002 13.925 13.365 12.89 12.408C12.668 12.202 12.577 12.016 12.569 11.853C12.79 11.64 13.01 11.426 13.239 11.221C13.597 11.126 14.022 11.14 14.324 11.291ZM39.226 51.432C39.969 51.273 39.826 49.859 40.5 49.784C41.933 49.625 40.553 53.612 40.023 54.729C39.492 55.846 39.278 55.792 38.773 55.101C38.266 54.411 38.43 53.293 38.773 52.762C39.115 52.229 38.482 51.592 39.226 51.432Z" fill="white"/>
</svg>
