<svg width="24" height="25" viewBox="0 0 24 25" fill="none" xmlns="http://www.w3.org/2000/svg">
<g id="filter_list_alt" clip-path="url(#clip0_148_8676)">
<path id="Vector" d="M0 0.5H24H0ZM24 24.5H0H24Z" fill="white"/>
<path id="Vector_2" d="M4.25 6.16C4.35 6.29 9.99 13.49 9.99 13.49V19.5C9.99 20.05 10.44 20.5 11 20.5H13.01C13.56 20.5 14.02 20.05 14.02 19.5V13.48C14.02 13.48 19.51 6.46 19.77 6.14C20.03 5.82 20 5.5 20 5.5C20 4.95 19.55 4.5 18.99 4.5H5.01C4.4 4.5 4 4.98 4 5.5C4 5.7 4.06 5.94 4.25 6.16Z" fill="#F31559"/>
</g>
<defs>
<clipPath id="clip0_148_8676">
<rect width="24" height="24" fill="white" transform="translate(0 0.5)"/>
</clipPath>
</defs>
</svg>
