<svg width="1272" height="64" viewBox="0 0 1272 64" fill="none" xmlns="http://www.w3.org/2000/svg">
<circle cx="1240" cy="32" r="32" transform="rotate(-180 1240 32)" fill="#F31559"/>
<path fill-rule="evenodd" clip-rule="evenodd" d="M1232 32.0002C1232 31.735 1232.11 31.4806 1232.29 31.2931C1232.48 31.1056 1232.73 31.0002 1233 31.0002L1244.59 31.0002L1240.29 26.7082C1240.2 26.6152 1240.13 26.5048 1240.07 26.3834C1240.02 26.2619 1240 26.1317 1240 26.0002C1240 25.8687 1240.02 25.7385 1240.07 25.617C1240.13 25.4956 1240.2 25.3852 1240.29 25.2922C1240.38 25.1992 1240.5 25.1255 1240.62 25.0752C1240.74 25.0248 1240.87 24.9989 1241 24.9989C1241.13 24.9989 1241.26 25.0248 1241.38 25.0752C1241.5 25.1255 1241.61 25.1992 1241.71 25.2922L1247.71 31.2922C1247.8 31.3851 1247.87 31.4954 1247.93 31.6169C1247.98 31.7384 1248 31.8687 1248 32.0002C1248 32.1317 1247.98 32.262 1247.93 32.3835C1247.87 32.505 1247.8 32.6153 1247.71 32.7082L1241.71 38.7082C1241.52 38.896 1241.27 39.0015 1241 39.0015C1240.73 39.0015 1240.48 38.896 1240.29 38.7082C1240.1 38.5204 1240 38.2658 1240 38.0002C1240 37.7346 1240.1 37.48 1240.29 37.2922L1244.59 33.0002L1233 33.0002C1232.73 33.0002 1232.48 32.8948 1232.29 32.7073C1232.11 32.5198 1232 32.2654 1232 32.0002Z" fill="#21334F"/>
<circle cx="32" cy="32" r="32" fill="black" fill-opacity="0.05"/>
<path fill-rule="evenodd" clip-rule="evenodd" d="M40.0001 31.9998C40.0001 32.265 39.8947 32.5194 39.7072 32.7069C39.5196 32.8944 39.2653 32.9998 39.0001 32.9998H27.4141L31.7081 37.2918C31.8011 37.3848 31.8748 37.4952 31.9251 37.6166C31.9754 37.7381 32.0013 37.8683 32.0013 37.9998C32.0013 38.1313 31.9754 38.2615 31.9251 38.383C31.8748 38.5044 31.8011 38.6148 31.7081 38.7078C31.6151 38.8008 31.5047 38.8745 31.3832 38.9248C31.2618 38.9752 31.1316 39.0011 31.0001 39.0011C30.8686 39.0011 30.7384 38.9752 30.6169 38.9248C30.4954 38.8745 30.3851 38.8008 30.2921 38.7078L24.2921 32.7078C24.199 32.6149 24.1251 32.5046 24.0747 32.3831C24.0242 32.2616 23.9983 32.1313 23.9983 31.9998C23.9983 31.8683 24.0242 31.738 24.0747 31.6165C24.1251 31.495 24.199 31.3847 24.2921 31.2918L30.2921 25.2918C30.4799 25.104 30.7345 24.9985 31.0001 24.9985C31.2656 24.9985 31.5203 25.104 31.7081 25.2918C31.8959 25.4796 32.0013 25.7342 32.0013 25.9998C32.0013 26.2654 31.8959 26.52 31.7081 26.7078L27.4141 30.9998H39.0001C39.2653 30.9998 39.5196 31.1052 39.7072 31.2927C39.8947 31.4802 40.0001 31.7346 40.0001 31.9998Z" fill="#21334F"/>
</svg>
