<svg width="40" height="40" viewBox="0 0 40 40" fill="none" xmlns="http://www.w3.org/2000/svg">
<g clip-path="url(#clip0_6_333)">
<circle cx="20" cy="20" r="20" fill="#F31559"/>
<path d="M10 20H29.9282M16 25H24M16 25C16 26.1046 15.1046 27 14 27C12.8954 27 12 26.1046 12 25M16 25C16 23.8954 15.1046 23 14 23C12.8954 23 12 23.8954 12 25M24 25C24 26.1046 24.8954 27 26 27C27.1046 27 28 26.1046 28 25M24 25C24 23.8954 24.8954 23 26 23C27.1046 23 28 23.8954 28 25M22 13V20M16 13V20M12 25C10.8954 25 10 24.1046 10 23V16.2C10 15.0799 10 14.5198 10.218 14.092C10.4097 13.7157 10.7157 13.4097 11.092 13.218C11.5198 13 12.0799 13 13.2 13H24.143C24.8193 13 25.1575 13 25.4599 13.0987C25.7275 13.1861 25.9737 13.3289 26.1822 13.5179C26.418 13.7315 26.5858 14.0251 26.9213 14.6124L29.5784 19.2622C29.7354 19.5369 29.8139 19.6744 29.8694 19.8202C29.9186 19.9497 29.9543 20.084 29.9758 20.2209C30 20.3751 30 20.5333 30 20.8498V23C30 24.1046 29.1046 25 28 25" stroke="white" stroke-width="2" stroke-linecap="round" stroke-linejoin="round"/>
</g>
<defs>
<clipPath id="clip0_6_333">
<rect width="40" height="40" fill="white"/>
</clipPath>
</defs>
</svg>
