<svg width="224" height="24" viewBox="0 0 224 24" fill="none" xmlns="http://www.w3.org/2000/svg">
<path d="M13.397 20.9972V12.8012H16.162L16.573 9.59217H13.397V7.54817C13.397 6.62217 13.655 5.98817 14.984 5.98817H16.668V3.12717C15.8487 3.03936 15.0251 2.99696 14.201 3.00017C11.757 3.00017 10.079 4.49217 10.079 7.23117V9.58617H7.33203V12.7952H10.085V20.9972H13.397Z" fill="white"/>
<path fill-rule="evenodd" clip-rule="evenodd" d="M41 2.838C41 2.35053 41.1936 1.88303 41.5383 1.53834C41.883 1.19365 42.3505 1 42.838 1H61.16C61.4016 0.999608 61.6409 1.04687 61.8641 1.13907C62.0874 1.23127 62.2903 1.36661 62.4612 1.53734C62.6322 1.70807 62.7677 1.91083 62.8602 2.13401C62.9526 2.3572 63.0001 2.59643 63 2.838V21.16C63.0003 21.4016 62.9529 21.6409 62.8606 21.8642C62.7683 22.0875 62.6328 22.2904 62.462 22.4613C62.2912 22.6322 62.0884 22.7678 61.8651 22.8602C61.6419 22.9526 61.4026 23.0001 61.161 23H42.838C42.5965 23 42.3575 22.9524 42.1344 22.86C41.9113 22.7676 41.7087 22.6321 41.538 22.4613C41.3673 22.2905 41.2319 22.0878 41.1396 21.8647C41.0473 21.6416 40.9999 21.4025 41 21.161V2.838ZM49.708 9.388H52.687V10.884C53.117 10.024 54.217 9.25 55.87 9.25C59.039 9.25 59.79 10.963 59.79 14.106V19.928H56.583V14.822C56.583 13.032 56.153 12.022 55.061 12.022C53.546 12.022 52.916 13.111 52.916 14.822V19.928H49.708V9.388ZM44.208 19.791H47.416V9.25H44.208V19.79V19.791ZM47.875 5.812C47.881 6.08668 47.8322 6.35979 47.7312 6.61532C47.6303 6.87084 47.4794 7.10364 47.2872 7.30003C47.0951 7.49643 46.8657 7.65248 46.6125 7.75901C46.3592 7.86554 46.0872 7.92042 45.8125 7.92042C45.5378 7.92042 45.2658 7.86554 45.0125 7.75901C44.7593 7.65248 44.5299 7.49643 44.3378 7.30003C44.1456 7.10364 43.9947 6.87084 43.8938 6.61532C43.7928 6.35979 43.744 6.08668 43.75 5.812C43.7619 5.27286 43.9844 4.75979 44.3699 4.38269C44.7554 4.00558 45.2732 3.79442 45.8125 3.79442C46.3518 3.79442 46.8696 4.00558 47.2551 4.38269C47.6406 4.75979 47.8631 5.27286 47.875 5.812Z" fill="white"/>
<path d="M102.728 5.35209C102.14 6.22809 101.396 7.00809 100.532 7.63209C100.544 7.81209 100.544 8.00409 100.544 8.19609C100.544 14.0161 96.116 20.7241 88.028 20.7241C85.544 20.7241 83.228 19.9921 81.272 18.7441C81.62 18.7801 81.968 18.8041 82.328 18.8041C84.392 18.8041 86.288 18.0961 87.788 16.9201C86.8704 16.9011 85.9816 16.596 85.2459 16.0474C84.5101 15.4988 83.964 14.7341 83.684 13.8601C83.948 13.9081 84.224 13.9441 84.512 13.9441C84.908 13.9441 85.304 13.8841 85.664 13.7881C84.6687 13.5838 83.7743 13.0425 83.1316 12.2556C82.489 11.4686 82.1373 10.4841 82.136 9.46809V9.42009C82.736 9.74409 83.408 9.94809 84.128 9.97209C83.5253 9.56785 83.0316 9.02133 82.6904 8.38087C82.3493 7.74041 82.1712 7.02574 82.172 6.30009C82.172 5.49609 82.388 4.74009 82.772 4.09209C84.944 6.75609 88.184 8.50809 91.844 8.68809C91.772 8.36409 91.724 8.02809 91.724 7.68009C91.7272 6.51415 92.1925 5.39706 93.0181 4.57374C93.8437 3.75043 94.962 3.28808 96.128 3.28809C97.4 3.28809 98.54 3.81609 99.344 4.68009C100.34 4.47609 101.288 4.11609 102.14 3.61209C101.804 4.63209 101.108 5.49609 100.196 6.03609C101.07 5.94052 101.924 5.70977 102.728 5.35209Z" fill="white"/>
<path d="M131.997 7.99815C129.793 7.99815 127.995 9.79633 127.995 11.9998C127.995 14.2032 129.793 16.0014 131.997 16.0014C134.2 16.0014 135.998 14.2032 135.998 11.9998C135.998 9.79633 134.2 7.99815 131.997 7.99815ZM143.999 11.9998C143.999 10.3427 144.014 8.70061 143.921 7.04652C143.828 5.12526 143.389 3.42014 141.984 2.01522C140.576 0.607291 138.874 0.172005 136.953 0.0789442C135.296 -0.014117 133.654 0.000892919 132 0.000892919C130.343 0.000892919 128.701 -0.014117 127.047 0.0789442C125.125 0.172005 123.42 0.610293 122.015 2.01522C120.607 3.42314 120.172 5.12526 120.079 7.04652C119.986 8.70361 120.001 10.3457 120.001 11.9998C120.001 13.6539 119.986 15.2989 120.079 16.953C120.172 18.8743 120.61 20.5794 122.015 21.9843C123.423 23.3923 125.125 23.8275 127.047 23.9206C128.704 24.0137 130.346 23.9987 132 23.9987C133.657 23.9987 135.299 24.0137 136.953 23.9206C138.874 23.8275 140.579 23.3893 141.984 21.9843C143.392 20.5764 143.828 18.8743 143.921 16.953C144.017 15.2989 143.999 13.6569 143.999 11.9998ZM131.997 18.1568C128.59 18.1568 125.84 15.407 125.84 11.9998C125.84 8.59254 128.59 5.84273 131.997 5.84273C135.404 5.84273 138.154 8.59254 138.154 11.9998C138.154 15.407 135.404 18.1568 131.997 18.1568ZM138.406 7.02851C137.61 7.02851 136.968 6.38609 136.968 5.59057C136.968 4.79504 137.61 4.15262 138.406 4.15262C139.202 4.15262 139.844 4.79504 139.844 5.59057C139.844 5.77947 139.807 5.96656 139.735 6.14112C139.663 6.31569 139.557 6.4743 139.423 6.60787C139.29 6.74145 139.131 6.84736 138.957 6.91954C138.782 6.99172 138.595 7.02875 138.406 7.02851Z" fill="white"/>
<path d="M183.499 5.62768C183.362 5.11885 183.095 4.65483 182.722 4.28206C182.35 3.90929 181.886 3.64084 181.378 3.50357C179.505 3 172 3 172 3C172 3 164.495 3 162.622 3.50089C162.113 3.63771 161.65 3.90601 161.277 4.27886C160.905 4.6517 160.637 5.11595 160.501 5.625C160 7.5 160 11.4107 160 11.4107C160 11.4107 160 15.3214 160.501 17.1938C160.777 18.2277 161.591 19.042 162.622 19.3179C164.495 19.8214 172 19.8214 172 19.8214C172 19.8214 179.505 19.8214 181.378 19.3179C182.412 19.042 183.223 18.2277 183.499 17.1938C184 15.3214 184 11.4107 184 11.4107C184 11.4107 184 7.5 183.499 5.62768ZM169.616 15V7.82143L175.83 11.3839L169.616 15Z" fill="white"/>
<path d="M220.16 6.84024C217.28 2.40024 211.4 1.08024 206.84 3.84024C202.4 6.60024 200.96 12.6002 203.84 17.0402L204.08 17.4002L203.12 21.0002L206.72 20.0402L207.08 20.2802C208.64 21.1202 210.32 21.6002 212 21.6002C213.8 21.6002 215.6 21.1202 217.16 20.1602C221.6 17.2802 222.92 11.4002 220.16 6.84024ZM217.64 16.0802C217.16 16.8002 216.56 17.2802 215.72 17.4002C215.24 17.4002 214.64 17.6402 212.24 16.6802C210.2 15.7202 208.52 14.1602 207.32 12.3602C206.6 11.5202 206.24 10.4402 206.12 9.36024C206.12 8.40024 206.48 7.56024 207.08 6.96024C207.32 6.72024 207.56 6.60024 207.8 6.60024H208.4C208.64 6.60024 208.88 6.60024 209 7.08024C209.24 7.68024 209.84 9.12024 209.84 9.24024C209.96 9.36024 209.96 9.60024 209.84 9.72024C209.96 9.96024 209.84 10.2002 209.72 10.3202C209.6 10.4402 209.48 10.6802 209.36 10.8002C209.12 10.9202 209 11.1602 209.12 11.4002C209.6 12.1202 210.2 12.8402 210.8 13.4402C211.52 14.0402 212.24 14.5202 213.08 14.8802C213.32 15.0002 213.56 15.0002 213.68 14.7602C213.8 14.5202 214.4 13.9202 214.64 13.6802C214.88 13.4402 215 13.4402 215.24 13.5602L217.16 14.5202C217.4 14.6402 217.64 14.7602 217.76 14.8802C217.88 15.2402 217.88 15.7202 217.64 16.0802Z" fill="white"/>
</svg>
