<svg width="24" height="24" viewBox="0 0 24 24" fill="none" xmlns="http://www.w3.org/2000/svg">
<g id="Group">
<path id="Vector" d="M15.5 6V6.5H16H18C18.8239 6.5 19.5 7.17614 19.5 8V20C19.5 20.8239 18.8239 21.5 18 21.5H6C5.17614 21.5 4.5 20.8239 4.5 20V8C4.5 7.17614 5.17614 6.5 6 6.5H8H8.5V6C8.5 4.06614 10.0661 2.5 12 2.5C13.9339 2.5 15.5 4.06614 15.5 6ZM8 7.5H7.5V8V10C7.5 10.8261 8.17386 11.5 9 11.5C9.82614 11.5 10.5 10.8261 10.5 10V8V7.5H10H8ZM14 6.5H14.5V6C14.5 4.62386 13.3761 3.5 12 3.5C10.6239 3.5 9.5 4.62386 9.5 6V6.5H10H14ZM14 7.5H13.5V8V10C13.5 10.8261 14.1739 11.5 15 11.5C15.8261 11.5 16.5 10.8261 16.5 10V8V7.5H16H14Z" fill="#5C6881" stroke="#5C6881"/>
</g>
</svg>
