<svg width="64" height="64" viewBox="0 0 64 64" fill="none" xmlns="http://www.w3.org/2000/svg">
<path d="M58.6667 50.6H45.3333M56 32V12C56 10.9391 55.5786 9.92172 54.8284 9.17157C54.0783 8.42143 53.0609 8 52 8H12C10.9391 8 9.92172 8.42143 9.17157 9.17157C8.42143 9.92172 8 10.9391 8 12V52C8 53.0609 8.42143 54.0783 9.17157 54.8284C9.92172 55.5786 10.9391 56 12 56H32L56 32ZM52.0667 44V57.3333V44Z" stroke="white" stroke-width="4" stroke-linecap="round" stroke-linejoin="round"/>
<path d="M31.9999 30.6668C35.6818 30.6668 38.6666 27.6821 38.6666 24.0002C38.6666 20.3183 35.6818 17.3335 31.9999 17.3335C28.318 17.3335 25.3333 20.3183 25.3333 24.0002C25.3333 27.6821 28.318 30.6668 31.9999 30.6668Z" stroke="white" stroke-width="4" stroke-linecap="round" stroke-linejoin="round"/>
<path d="M44 41.3332C44 35.4425 38.6267 30.6665 32 30.6665C25.3733 30.6665 20 35.4425 20 41.3332" stroke="white" stroke-width="4" stroke-linecap="round" stroke-linejoin="round"/>
</svg>
