<svg width="20" height="20" viewBox="0 0 20 20" fill="none" xmlns="http://www.w3.org/2000/svg">
<path d="M17.476 6.66669C17.476 6.66669 14.125 10.8334 10 10.8334C5.875 10.8334 2.52399 6.66669 2.52399 6.66669M6.5 15.8334H13.5C14.9001 15.8334 15.6002 15.8334 16.135 15.5609C16.6054 15.3212 16.9878 14.9387 17.2275 14.4683C17.5 13.9336 17.5 13.2335 17.5 11.8334V8.16669C17.5 6.76656 17.5 6.06649 17.2275 5.53171C16.9878 5.06131 16.6054 4.67885 16.135 4.43917C15.6002 4.16669 14.9001 4.16669 13.5 4.16669H6.5C5.09987 4.16669 4.3998 4.16669 3.86502 4.43917C3.39462 4.67885 3.01217 5.06131 2.77248 5.53171C2.5 6.06649 2.5 6.76656 2.5 8.16669V11.8334C2.5 13.2335 2.5 13.9336 2.77248 14.4683C3.01217 14.9387 3.39462 15.3212 3.86502 15.5609C4.3998 15.8334 5.09987 15.8334 6.5 15.8334Z" stroke="#98A2B3" stroke-width="2" stroke-linecap="round" stroke-linejoin="round"/>
</svg>
