<svg width="64" height="64" viewBox="0 0 64 64" fill="none" xmlns="http://www.w3.org/2000/svg">
<path d="M32.0001 10.6665C34.8291 10.6665 37.5422 11.7903 39.5426 13.7907C41.5429 15.7911 42.6667 18.5042 42.6667 21.3332C42.6667 24.1621 41.5429 26.8753 39.5426 28.8756C37.5422 30.876 34.8291 31.9998 32.0001 31.9998C29.1711 31.9998 26.458 30.876 24.4576 28.8756C22.4572 26.8753 21.3334 24.1621 21.3334 21.3332C21.3334 18.5042 22.4572 15.7911 24.4576 13.7907C26.458 11.7903 29.1711 10.6665 32.0001 10.6665ZM32.0001 15.9998C30.5856 15.9998 29.229 16.5617 28.2288 17.5619C27.2287 18.5621 26.6667 19.9187 26.6667 21.3332C26.6667 22.7477 27.2287 24.1042 28.2288 25.1044C29.229 26.1046 30.5856 26.6665 32.0001 26.6665C33.4146 26.6665 34.7711 26.1046 35.7713 25.1044C36.7715 24.1042 37.3334 22.7477 37.3334 21.3332C37.3334 19.9187 36.7715 18.5621 35.7713 17.5619C34.7711 16.5617 33.4146 15.9998 32.0001 15.9998ZM32.0001 34.6665C39.1201 34.6665 53.3334 38.2132 53.3334 45.3332V53.3332H10.6667V45.3332C10.6667 38.2132 24.8801 34.6665 32.0001 34.6665ZM32.0001 39.7332C24.0801 39.7332 15.7334 43.6265 15.7334 45.3332V48.2665H48.2667V45.3332C48.2667 43.6265 39.9201 39.7332 32.0001 39.7332Z" fill="white"/>
</svg>
