<svg width="64" height="64" viewBox="0 0 64 64" fill="none" xmlns="http://www.w3.org/2000/svg">
<path d="M16 33H12V35H16V33Z" fill="#21334F"/>
<path d="M54 46C52.4178 46 50.871 46.4692 49.5554 47.3482C48.2399 48.2273 47.2145 49.4767 46.609 50.9385C46.0035 52.4003 45.845 54.0089 46.1537 55.5607C46.4624 57.1126 47.2243 58.538 48.3432 59.6569C49.462 60.7757 50.8874 61.5376 52.4393 61.8463C53.9911 62.155 55.5997 61.9965 57.0615 61.391C58.5233 60.7855 59.7727 59.7602 60.6518 58.4446C61.5308 57.129 62 55.5823 62 54C61.9976 51.879 61.154 49.8456 59.6542 48.3458C58.1545 46.846 56.121 46.0024 54 46ZM54 60C52.8133 60 51.6533 59.6481 50.6666 58.9888C49.6799 58.3295 48.9109 57.3925 48.4567 56.2961C48.0026 55.1997 47.8838 53.9933 48.1153 52.8295C48.3468 51.6656 48.9182 50.5965 49.7574 49.7574C50.5965 48.9182 51.6656 48.3468 52.8295 48.1153C53.9933 47.8838 55.1997 48.0026 56.2961 48.4567C57.3925 48.9108 58.3295 49.6799 58.9888 50.6666C59.6481 51.6533 60 52.8133 60 54C59.9984 55.5908 59.3658 57.116 58.2409 58.2409C57.116 59.3658 55.5908 59.9984 54 60Z" fill="#21334F"/>
<path d="M54 50C53.2089 50 52.4355 50.2346 51.7777 50.6741C51.1199 51.1136 50.6072 51.7384 50.3045 52.4693C50.0017 53.2002 49.9225 54.0044 50.0769 54.7804C50.2312 55.5563 50.6122 56.269 51.1716 56.8284C51.731 57.3878 52.4437 57.7688 53.2196 57.9231C53.9956 58.0775 54.7998 57.9983 55.5307 57.6955C56.2616 57.3928 56.8864 56.8801 57.3259 56.2223C57.7654 55.5645 58 54.7911 58 54C58 52.9391 57.5786 51.9217 56.8284 51.1716C56.0783 50.4214 55.0609 50 54 50ZM54 56C53.6044 56 53.2178 55.8827 52.8889 55.6629C52.56 55.4432 52.3036 55.1308 52.1522 54.7654C52.0009 54.3999 51.9613 53.9978 52.0384 53.6098C52.1156 53.2219 52.3061 52.8655 52.5858 52.5858C52.8655 52.3061 53.2219 52.1156 53.6098 52.0384C53.9978 51.9613 54.3999 52.0009 54.7654 52.1522C55.1308 52.3036 55.4432 52.56 55.6629 52.8889C55.8827 53.2178 56 53.6044 56 54C56 54.5304 55.7893 55.0391 55.4142 55.4142C55.0391 55.7893 54.5304 56 54 56ZM54 44H56V42H54C53.5364 42.003 53.0733 42.0324 52.613 42.088L50.259 31.1C50.5008 31.0356 50.7498 31.002 51 31C51.2652 31 51.5196 30.8946 51.7071 30.7071C51.8946 30.5196 52 30.2652 52 30V26C52 25.7348 51.8946 25.4804 51.7071 25.2929C51.5196 25.1054 51.2652 25 51 25H48C47.2805 24.9984 46.5846 25.2561 46.0397 25.7259C45.4948 26.1957 45.1374 26.8462 45.033 27.558C44.9287 28.2699 45.0844 28.9955 45.4715 29.602C45.8586 30.2084 46.4513 30.655 47.141 30.86C46.4084 31.7429 46.0051 32.8528 46 34V45H46.086C43.7526 47.0422 42.3025 49.9101 42.041 53H34C32.8864 53.0016 31.8042 52.6314 30.9249 51.9481C30.0456 51.2649 29.4196 50.3076 29.1461 49.2282C28.8725 48.1488 28.9672 47.0089 29.4149 45.9894C29.8627 44.9698 30.6381 44.1289 31.618 43.6C32.4905 43.1433 33.2448 42.49 33.8214 41.6917C34.3979 40.8933 34.7809 39.9718 34.94 39H36V48C36 48.7957 36.3161 49.5587 36.8787 50.1213C37.4413 50.6839 38.2043 51 39 51C39.7957 51 40.5587 50.6839 41.1213 50.1213C41.6839 49.5587 42 48.7957 42 48V37C42 35.9391 41.5786 34.9217 40.8284 34.1716C40.0783 33.4214 39.0609 33 38 33H34C33.7348 33 33.4804 32.8946 33.2929 32.7071C33.1054 32.5196 33 32.2652 33 32V30.414L33.293 30.707C33.4805 30.8945 33.7348 30.9999 34 31H41C41.7957 31 42.5587 30.6839 43.1213 30.1213C43.6839 29.5587 44 28.7956 44 28C44 27.2043 43.6839 26.4413 43.1213 25.8787C42.5587 25.3161 41.7957 25 41 25H36.414L33 21.586V17C33 16.4696 32.7893 15.9609 32.4142 15.5858C32.0391 15.2107 31.5304 15 31 15H29C27.4092 15.0016 25.884 15.6342 24.7591 16.7591C23.6342 17.884 23.0016 19.4092 23 21V32C22.9998 32.9322 23.1865 33.855 23.5491 34.7138C23.9117 35.5726 24.4428 36.35 25.111 37H22C21.3314 37.0036 20.6636 37.0464 20 37.128V22C20 21.7348 19.8946 21.4804 19.7071 21.2929C19.5196 21.1054 19.2652 21 19 21H3C2.73478 21 2.48043 21.1054 2.29289 21.2929C2.10536 21.4804 2 21.7348 2 22V38C2 38.2652 2.10536 38.5196 2.29289 38.7071C2.48043 38.8946 2.73478 39 3 39H5V44C5 44.2652 5.10536 44.5196 5.29289 44.7071C5.48043 44.8946 5.73478 45 6 45H7.6C5.9014 47.6945 5 50.8148 5 54C5 54.2652 5.10536 54.5196 5.29289 54.7071C5.48043 54.8946 5.73478 55 6 55H9.069C9.31113 56.9327 10.2507 58.7104 11.711 59.9993C13.1714 61.2881 15.0522 61.9994 17 61.9994C18.9478 61.9994 20.8286 61.2881 22.289 59.9993C23.7493 58.7104 24.6889 56.9327 24.931 55H43C43.2652 55 43.5196 54.8946 43.7071 54.7071C43.8946 54.5196 44 54.2652 44 54C44.0029 51.3487 45.0574 48.8069 46.9321 46.9321C48.8069 45.0574 51.3487 44.0029 54 44ZM29 17H31V22C31.0001 22.2652 31.1054 22.5195 31.293 22.707L35.293 26.707C35.4805 26.8945 35.7348 26.9999 36 27H41C41.2652 27 41.5196 27.1054 41.7071 27.2929C41.8946 27.4804 42 27.7348 42 28C42 28.2652 41.8946 28.5196 41.7071 28.7071C41.5196 28.8946 41.2652 29 41 29H34.414L29 23.586V21H27V24C27.0001 24.2652 27.1054 24.5195 27.293 24.707L31 28.414V31H25V21C25 19.9391 25.4214 18.9217 26.1716 18.1716C26.9217 17.4214 27.9391 17 29 17ZM25.1 33H31.183C31.3891 33.5831 31.7704 34.0882 32.2747 34.4462C32.779 34.8042 33.3816 34.9976 34 35H38C38.5304 35 39.0391 35.2107 39.4142 35.5858C39.7893 35.9609 40 36.4696 40 37V48C40 48.2652 39.8946 48.5196 39.7071 48.7071C39.5196 48.8946 39.2652 49 39 49C38.7348 49 38.4804 48.8946 38.2929 48.7071C38.1054 48.5196 38 48.2652 38 48V38C38 37.7348 37.8946 37.4804 37.7071 37.2929C37.5196 37.1054 37.2652 37 37 37H30C28.8478 36.9985 27.7313 36.5999 26.8387 35.8713C25.9462 35.1427 25.3321 34.1286 25.1 33ZM11.933 40.333C11.8518 39.8628 11.6861 39.4112 11.444 39H14.017C13.291 39.3933 12.5945 39.8388 11.933 40.333ZM9 23H13V26.556L11.713 25.247C11.5212 25.063 11.2657 24.9603 11 24.9603C10.7343 24.9603 10.4788 25.063 10.287 25.247L9 26.556V23ZM4 23H7V29C7.00023 29.1984 7.05947 29.3922 7.17018 29.5569C7.28089 29.7215 7.43807 29.8495 7.62172 29.9245C7.80538 29.9996 8.0072 30.0183 8.20153 29.9783C8.39585 29.9383 8.57389 29.8415 8.713 29.7L11 27.375L13.287 29.7C13.38 29.7948 13.4909 29.8702 13.6133 29.9217C13.7357 29.9732 13.8672 29.9998 14 30C14.13 30.0003 14.2589 29.9748 14.379 29.925C14.5626 29.8498 14.7197 29.7217 14.8303 29.557C14.9408 29.3923 14.9999 29.1984 15 29V23H18V37H4V23ZM7 39H8C8.53043 39 9.03914 39.2107 9.41421 39.5858C9.78929 39.9609 10 40.4696 10 41C10 41.5304 9.78929 42.0391 9.41421 42.4142C9.03914 42.7893 8.53043 43 8 43H7V39ZM17 60C15.5834 59.9974 14.2134 59.4941 13.132 58.5792C12.0505 57.6643 11.3273 56.3965 11.09 55H13.142C13.3603 55.8576 13.8581 56.618 14.5567 57.1611C15.2554 57.7042 16.1151 57.9991 17 57.9991C17.8849 57.9991 18.7446 57.7042 19.4433 57.1611C20.1419 56.618 20.6397 55.8576 20.858 55H22.91C22.6727 56.3965 21.9495 57.6643 20.868 58.5792C19.7866 59.4941 18.4166 59.9974 17 60ZM15.278 55H18.722C18.5486 55.3037 18.298 55.5561 17.9956 55.7316C17.6931 55.9072 17.3497 55.9996 17 55.9996C16.6503 55.9996 16.3069 55.9072 16.0044 55.7316C15.702 55.5561 15.4514 55.3037 15.278 55ZM7.033 53C7.29154 49.205 8.9802 45.6495 11.7581 43.0511C14.536 40.4527 18.1963 39.0049 22 39H32.91C32.7632 39.6081 32.4865 40.1773 32.0988 40.6682C31.711 41.1592 31.2216 41.5603 30.664 41.844C29.5634 42.4425 28.6435 43.3251 28 44.4C27.395 43.3488 26.5193 42.479 25.4641 41.881C24.4089 41.283 23.2127 40.9788 22 41C19.2384 41.0061 16.563 41.9617 14.4225 43.7066C12.282 45.4514 10.8066 47.8793 10.244 50.583L12.203 50.983C12.6722 48.7303 13.9019 46.7076 15.6857 45.254C17.4695 43.8005 19.699 43.0047 22 43C22.8939 42.9759 23.7767 43.2028 24.5482 43.6549C25.3197 44.1071 25.9491 44.7663 26.365 45.558L26.494 45.758C26.9147 46.4252 27.0934 47.2168 27 48C26.9994 48.9317 27.1853 49.8541 27.5469 50.7129C27.9084 51.5716 28.4382 52.3493 29.105 53H7.033ZM48 27H50V29H48C47.7348 29 47.4804 28.8946 47.2929 28.7071C47.1054 28.5196 47 28.2652 47 28C47 27.7348 47.1054 27.4804 47.2929 27.2929C47.4804 27.1054 47.7348 27 48 27ZM48 34C48.0007 33.422 48.1695 32.8567 48.486 32.373L50.651 42.473C49.724 42.7483 48.8338 43.1351 48 43.625V34ZM30 14C31.5908 13.9984 33.116 13.3658 34.2409 12.2409C35.3658 11.116 35.9984 9.59081 36 8H39V6H35.65C35.2832 4.96264 34.6383 4.04611 33.7857 3.35063C32.9331 2.65515 31.9057 2.20751 30.8158 2.05666C29.7259 1.90581 28.6155 2.05756 27.606 2.49531C26.5966 2.93306 25.7269 3.63996 25.0922 4.5387C24.4575 5.43744 24.0821 6.49341 24.0071 7.59114C23.9321 8.68887 24.1604 9.78607 24.6671 10.7628C25.1737 11.7395 25.9392 12.5581 26.8797 13.129C27.8203 13.6999 28.8997 14.0013 30 14ZM30 4C30.699 4.00221 31.3851 4.18815 31.9896 4.53918C32.5941 4.89021 33.0956 5.39398 33.444 6H26.556C26.9044 5.39398 27.4059 4.89021 28.0104 4.53918C28.6149 4.18815 29.301 4.00221 30 4ZM34 8C34 9.06086 33.5786 10.0783 32.8284 10.8284C32.0783 11.5786 31.0609 12 30 12C28.9391 12 27.9217 11.5786 27.1716 10.8284C26.4214 10.0783 26 9.06086 26 8H34Z" fill="#21334F"/>
</svg>
