<svg width="24" height="24" viewBox="0 0 24 24" fill="none" xmlns="http://www.w3.org/2000/svg">
<g id="Notification">
<path id="Vector" d="M18.9037 15.75L17.5162 13.9238C17.4919 13.8913 17.4787 13.8519 17.4787 13.8113V8.65505C17.495 7.21267 16.9564 5.81918 15.9745 4.76254C14.9925 3.70591 13.6422 3.06689 12.2025 2.97755C11.4513 2.93887 10.7001 3.05349 9.9947 3.31442C9.28926 3.57535 8.64431 3.97714 8.09912 4.49531C7.55394 5.01348 7.11992 5.6372 6.82351 6.32848C6.5271 7.01976 6.37448 7.76415 6.37497 8.5163V14.0025C6.37497 14.0431 6.36181 14.0826 6.33747 14.115L5.10747 15.75C4.88741 15.9917 4.74225 16.292 4.68962 16.6146C4.637 16.9371 4.67917 17.268 4.81102 17.5671C4.94288 17.8661 5.15873 18.1205 5.43237 18.2992C5.706 18.4779 6.02565 18.5733 6.35247 18.5738H17.6475C17.9753 18.5755 18.2964 18.4817 18.5718 18.3038C18.8471 18.1259 19.0647 17.8717 19.1979 17.5722C19.3311 17.2728 19.3743 16.941 19.322 16.6174C19.2698 16.2938 19.1244 15.9924 18.9037 15.75ZM18.1537 17.1C18.1113 17.201 18.0398 17.2869 17.9483 17.3471C17.8568 17.4072 17.7494 17.4387 17.64 17.4375H6.35247C6.24478 17.4356 6.13992 17.4027 6.05037 17.3428C5.96081 17.283 5.89032 17.1987 5.84728 17.1C5.80423 17.0012 5.79043 16.8922 5.80753 16.7859C5.82463 16.6795 5.8719 16.5803 5.94372 16.5L5.98497 16.4513L7.24872 14.7863C7.41386 14.5585 7.50189 14.2839 7.49997 14.0025V8.5163C7.49997 7.93492 7.61472 7.35926 7.83766 6.82232C8.0606 6.28539 8.38733 5.79774 8.79913 5.38734C9.21092 4.97694 9.69967 4.65186 10.2374 4.43074C10.775 4.20963 11.3511 4.09682 11.9325 4.0988H12.15C13.3012 4.17462 14.3792 4.68969 15.1616 5.5376C15.9439 6.38551 16.3706 7.5015 16.3537 8.65505V13.83C16.3537 14.1169 16.4472 14.396 16.62 14.625L18.0225 16.47L18.06 16.5113C18.1354 16.591 18.1853 16.6914 18.2033 16.7996C18.2214 16.9078 18.2067 17.019 18.1612 17.1188L18.1537 17.1ZM14.22 20.0288C13.9385 20.3443 13.5936 20.5967 13.2078 20.7696C12.822 20.9424 12.404 21.0318 11.9812 21.0318C11.5585 21.0318 11.1405 20.9424 10.7546 20.7696C10.3688 20.5967 10.0239 20.3443 9.74247 20.0288C9.65245 19.9166 9.60883 19.7742 9.62058 19.6308C9.63233 19.4875 9.69855 19.3541 9.80564 19.258C9.91272 19.162 10.0525 19.1106 10.1963 19.1145C10.3401 19.1183 10.477 19.1771 10.5787 19.2788C10.7546 19.4764 10.9704 19.6346 11.2118 19.7429C11.4532 19.8513 11.7148 19.9073 11.9793 19.9073C12.2439 19.9073 12.5055 19.8513 12.7469 19.7429C12.9883 19.6346 13.2041 19.4764 13.38 19.2788C13.4817 19.1771 13.6186 19.1183 13.7624 19.1145C13.9062 19.1106 14.046 19.162 14.1531 19.258C14.2601 19.3541 14.3264 19.4875 14.3381 19.6308C14.3499 19.7742 14.3062 19.9166 14.2162 20.0288H14.22Z" fill="black"/>
</g>
</svg>
