<svg width="16" height="17" viewBox="0 0 16 17" fill="none" xmlns="http://www.w3.org/2000/svg">
<path fill-rule="evenodd" clip-rule="evenodd" d="M3.8929 13.2526C3.6089 12.8936 3.2639 12.1596 2.6499 11.2686C2.3019 10.7646 1.4389 9.81563 1.1819 9.33363C0.958897 8.90763 0.982897 8.71663 1.0359 8.36363C1.1299 7.73563 1.7739 7.24663 2.4609 7.31263C2.9799 7.36163 3.4199 7.70463 3.8159 8.02863C4.0549 8.22363 4.3489 8.60263 4.5259 8.81663C4.6889 9.01263 4.7289 9.09363 4.9029 9.32563C5.1329 9.63263 5.2049 9.78463 5.1169 9.44663C5.0459 8.95063 4.9299 8.10363 4.7619 7.35463C4.6339 6.78663 4.6029 6.69763 4.4809 6.26163C4.3519 5.79763 4.2859 5.47263 4.1649 4.98063C4.0809 4.63263 3.9299 3.92163 3.8889 3.52163C3.8319 2.97463 3.8019 2.08263 4.1529 1.67263C4.4279 1.35163 5.0589 1.25463 5.4499 1.45263C5.9619 1.71163 6.2529 2.45563 6.3859 2.75263C6.6249 3.28663 6.7729 3.90363 6.9019 4.71363C7.0659 5.74463 7.3679 7.17563 7.3779 7.47663C7.4019 7.10763 7.3099 6.33063 7.3739 5.97663C7.4319 5.65563 7.7019 5.28263 8.0399 5.18163C8.3259 5.09663 8.6609 5.06563 8.9559 5.12663C9.2689 5.19063 9.5989 5.41463 9.7219 5.62563C10.0839 6.24963 10.0909 7.52463 10.1059 7.45663C10.1919 7.08063 10.1769 6.22763 10.3899 5.87263C10.5299 5.63863 10.8869 5.42763 11.0769 5.39363C11.3709 5.34163 11.7319 5.32563 12.0409 5.38563C12.2899 5.43463 12.6269 5.73063 12.7179 5.87263C12.9359 6.21663 13.0599 7.18963 13.0969 7.53063C13.1119 7.67163 13.1709 7.13863 13.3899 6.79463C13.7959 6.15563 15.2329 6.03163 15.2879 7.43363C15.3129 8.08763 15.3079 8.05763 15.3079 8.49763C15.3079 9.01463 15.2959 9.32563 15.2679 9.69963C15.2369 10.0996 15.1509 11.0036 15.0259 11.4416C14.9399 11.7426 14.6549 12.4196 14.3739 12.8256C14.3739 12.8256 13.2999 14.0756 13.1829 14.6386C13.0649 15.2006 13.1039 15.2046 13.0809 15.6036C13.0579 16.0016 13.2019 16.5256 13.2019 16.5256C13.2019 16.5256 12.3999 16.6296 11.9679 16.5606C11.5769 16.4976 11.0929 15.7196 10.9679 15.4816C10.7959 15.1536 10.4289 15.2166 10.2859 15.4586C10.0609 15.8416 9.5769 16.5286 9.2349 16.5716C8.5669 16.6556 7.1809 16.6026 6.0959 16.5916C6.0959 16.5916 6.2809 15.5806 5.8689 15.2336C5.5639 14.9746 5.0389 14.4496 4.7249 14.1736L3.8929 13.2526Z" fill="white"/>
<path fill-rule="evenodd" clip-rule="evenodd" d="M3.8929 13.2526C3.6089 12.8936 3.2639 12.1596 2.6499 11.2686C2.3019 10.7646 1.4389 9.81563 1.1819 9.33363C0.958897 8.90763 0.982897 8.71663 1.0359 8.36363C1.1299 7.73563 1.7739 7.24663 2.4609 7.31263C2.9799 7.36163 3.4199 7.70463 3.8159 8.02863C4.0549 8.22363 4.3489 8.60263 4.5259 8.81663C4.6889 9.01263 4.7289 9.09363 4.9029 9.32563C5.1329 9.63263 5.2049 9.78463 5.1169 9.44663C5.0459 8.95063 4.9299 8.10363 4.7619 7.35463C4.6339 6.78663 4.6029 6.69763 4.4809 6.26163C4.3519 5.79763 4.2859 5.47263 4.1649 4.98063C4.0809 4.63263 3.9299 3.92163 3.8889 3.52163C3.8319 2.97463 3.8019 2.08263 4.1529 1.67263C4.4279 1.35163 5.0589 1.25463 5.4499 1.45263C5.9619 1.71163 6.2529 2.45563 6.3859 2.75263C6.6249 3.28663 6.7729 3.90363 6.9019 4.71363C7.0659 5.74463 7.3679 7.17563 7.3779 7.47663C7.4019 7.10763 7.3099 6.33063 7.3739 5.97663C7.4319 5.65563 7.7019 5.28263 8.0399 5.18163C8.3259 5.09663 8.6609 5.06563 8.9559 5.12663C9.2689 5.19063 9.5989 5.41463 9.7219 5.62563C10.0839 6.24963 10.0909 7.52463 10.1059 7.45663C10.1919 7.08063 10.1769 6.22763 10.3899 5.87263C10.5299 5.63863 10.8869 5.42763 11.0769 5.39363C11.3709 5.34163 11.7319 5.32563 12.0409 5.38563C12.2899 5.43463 12.6269 5.73063 12.7179 5.87263C12.9359 6.21663 13.0599 7.18963 13.0969 7.53063C13.1119 7.67163 13.1709 7.13863 13.3899 6.79463C13.7959 6.15563 15.2329 6.03163 15.2879 7.43363C15.3129 8.08763 15.3079 8.05763 15.3079 8.49763C15.3079 9.01463 15.2959 9.32563 15.2679 9.69963C15.2369 10.0996 15.1509 11.0036 15.0259 11.4416C14.9399 11.7426 14.6549 12.4196 14.3739 12.8256C14.3739 12.8256 13.2999 14.0756 13.1829 14.6386C13.0649 15.2006 13.1039 15.2046 13.0809 15.6036C13.0579 16.0016 13.2019 16.5256 13.2019 16.5256C13.2019 16.5256 12.3999 16.6296 11.9679 16.5606C11.5769 16.4976 11.0929 15.7196 10.9679 15.4816C10.7959 15.1536 10.4289 15.2166 10.2859 15.4586C10.0609 15.8416 9.5769 16.5286 9.2349 16.5716C8.5669 16.6556 7.1809 16.6026 6.0959 16.5916C6.0959 16.5916 6.2809 15.5806 5.8689 15.2336C5.5639 14.9746 5.0389 14.4496 4.7249 14.1736L3.8929 13.2526V13.2526Z" stroke="#25282B" stroke-width="0.75" stroke-linecap="round" stroke-linejoin="round"/>
<path d="M12.1278 13.6069V10.1479" stroke="#25282B" stroke-width="0.75" stroke-linecap="round"/>
<path d="M10.1122 13.619L10.0962 10.146" stroke="#25282B" stroke-width="0.75" stroke-linecap="round"/>
<path d="M8.11609 10.1772L8.13709 13.6032" stroke="#25282B" stroke-width="0.75" stroke-linecap="round"/>
</svg>
