<svg width="573" height="110" viewBox="0 0 573 110" fill="none" xmlns="http://www.w3.org/2000/svg">
<path d="M572 1C540.162 1 520.681 75.3269 492.02 75.3269C463.359 75.3269 441.048 5.30061 424.853 5.30061C408.658 5.30061 402.706 45.7968 381.482 45.7968C360.258 45.7968 360.824 23.31 345.778 23.31C330.731 23.31 310.685 62.8112 275.574 62.8112C240.463 62.8112 227.807 18.6335 205.918 18.6335C184.028 18.6335 159.087 80.2612 138.296 80.2612C117.506 80.2612 109.242 53.6572 89.6048 53.6572C69.9673 53.6572 65.3318 81.1698 28.2723 100.422C22.6431 103.171 15.2034 107.59 1.0004 109" stroke="#25788E" stroke-width="2" stroke-linecap="round"/>
</svg>
