<svg width="192" height="20" viewBox="0 0 192 20" fill="none" xmlns="http://www.w3.org/2000/svg">
<path d="M13 7.5H13.0083M13 12.5C15.7614 12.5 18 10.2614 18 7.5C18 4.73858 15.7614 2.5 13 2.5C10.2386 2.5 8 4.73858 8 7.5C8 7.72807 8.01527 7.95256 8.04484 8.17253C8.09348 8.53432 8.1178 8.71521 8.10143 8.82966C8.08438 8.94888 8.06267 9.01312 8.00391 9.11825C7.9475 9.21917 7.84809 9.31857 7.64928 9.51739L3.39052 13.7761C3.2464 13.9203 3.17433 13.9923 3.1228 14.0764C3.07711 14.151 3.04344 14.2323 3.02303 14.3173C3 14.4132 3 14.5151 3 14.719V16.1667C3 16.6334 3 16.8667 3.09083 17.045C3.17072 17.2018 3.29821 17.3293 3.45501 17.4092C3.63327 17.5 3.86662 17.5 4.33333 17.5H5.78105C5.98487 17.5 6.08679 17.5 6.18269 17.477C6.26772 17.4566 6.34901 17.4229 6.42357 17.3772C6.50767 17.3257 6.57973 17.2536 6.72386 17.1095L10.9826 12.8507C11.1814 12.6519 11.2808 12.5525 11.3818 12.4961C11.4869 12.4373 11.5511 12.4156 11.6703 12.3986C11.7848 12.3822 11.9657 12.4065 12.3275 12.4552C12.5474 12.4847 12.7719 12.5 13 12.5Z" stroke="#98A2B3" stroke-width="2" stroke-linecap="round" stroke-linejoin="round"/>
<path d="M35.7338 7.36364C35.6741 6.85985 35.4321 6.46875 35.0079 6.19034C34.5837 5.91193 34.0633 5.77273 33.4468 5.77273C32.9961 5.77273 32.6017 5.84564 32.2636 5.99148C31.9288 6.13731 31.667 6.33783 31.4781 6.59304C31.2925 6.84825 31.1997 7.13826 31.1997 7.46307C31.1997 7.73485 31.2643 7.96851 31.3936 8.16406C31.5261 8.3563 31.6952 8.51705 31.9007 8.64631C32.1061 8.77225 32.3216 8.87666 32.547 8.95952C32.7723 9.03906 32.9795 9.10369 33.1684 9.15341L34.2025 9.43182C34.4677 9.50142 34.7626 9.59754 35.0874 9.72017C35.4156 9.8428 35.7288 10.0102 36.0271 10.2223C36.3287 10.4311 36.5773 10.6996 36.7728 11.0277C36.9684 11.3558 37.0661 11.7585 37.0661 12.2358C37.0661 12.786 36.922 13.2831 36.6336 13.7273C36.3486 14.1714 35.931 14.5244 35.3808 14.7862C34.8339 15.0481 34.1694 15.179 33.3872 15.179C32.658 15.179 32.0266 15.0613 31.493 14.826C30.9627 14.5907 30.5451 14.2625 30.2401 13.8416C29.9385 13.4207 29.7678 12.9318 29.7281 12.375H31.0008C31.0339 12.7595 31.1632 13.0777 31.3886 13.3295C31.6173 13.5781 31.9056 13.7637 32.2536 13.8864C32.605 14.0057 32.9828 14.0653 33.3872 14.0653C33.8578 14.0653 34.2804 13.9891 34.6549 13.8366C35.0294 13.6809 35.3261 13.4654 35.5448 13.1903C35.7636 12.9119 35.873 12.5871 35.873 12.2159C35.873 11.8778 35.7785 11.6027 35.5896 11.3906C35.4007 11.1785 35.1521 11.0062 34.8438 10.8736C34.5356 10.741 34.2025 10.625 33.8445 10.5256L32.5917 10.1676C31.7963 9.93892 31.1665 9.61245 30.7025 9.18821C30.2385 8.76397 30.0065 8.20881 30.0065 7.52273C30.0065 6.95265 30.1606 6.45549 30.4688 6.03125C30.7804 5.60369 31.198 5.27225 31.7217 5.03693C32.2487 4.7983 32.837 4.67898 33.4866 4.67898C34.1428 4.67898 34.7262 4.79664 35.2366 5.03196C35.747 5.26397 36.1514 5.58215 36.4497 5.98651C36.7513 6.39086 36.9104 6.8499 36.9269 7.36364H35.7338ZM39.0933 15V4.81818H45.2382V5.91193H40.3263V9.35227H44.92V10.446H40.3263V13.9062H45.3177V15H39.0933ZM55.6537 8H54.4207C54.3478 7.64536 54.2202 7.33381 54.0379 7.06534C53.8589 6.79688 53.6402 6.5715 53.3817 6.3892C53.1265 6.2036 52.8431 6.06439 52.5315 5.97159C52.22 5.87879 51.8952 5.83239 51.5571 5.83239C50.9406 5.83239 50.3821 5.98816 49.8817 6.29972C49.3845 6.61127 48.9884 7.07031 48.6934 7.67685C48.4018 8.28338 48.2559 9.02746 48.2559 9.90909C48.2559 10.7907 48.4018 11.5348 48.6934 12.1413C48.9884 12.7479 49.3845 13.2069 49.8817 13.5185C50.3821 13.83 50.9406 13.9858 51.5571 13.9858C51.8952 13.9858 52.22 13.9394 52.5315 13.8466C52.8431 13.7538 53.1265 13.6162 53.3817 13.4339C53.6402 13.2483 53.8589 13.0213 54.0379 12.7528C54.2202 12.4811 54.3478 12.1695 54.4207 11.8182H55.6537C55.5609 12.3385 55.3918 12.8042 55.1466 13.2152C54.9013 13.6262 54.5964 13.9759 54.2318 14.2642C53.8672 14.5492 53.4579 14.7663 53.0038 14.9155C52.5531 15.0646 52.0708 15.1392 51.5571 15.1392C50.6887 15.1392 49.9165 14.9271 49.2403 14.5028C48.5642 14.0786 48.0322 13.4754 47.6444 12.6932C47.2567 11.911 47.0628 10.983 47.0628 9.90909C47.0628 8.83523 47.2567 7.9072 47.6444 7.125C48.0322 6.3428 48.5642 5.73958 49.2403 5.31534C49.9165 4.8911 50.6887 4.67898 51.5571 4.67898C52.0708 4.67898 52.5531 4.75355 53.0038 4.9027C53.4579 5.05185 53.8672 5.2706 54.2318 5.55895C54.5964 5.84399 54.9013 6.192 55.1466 6.60298C55.3918 7.01065 55.5609 7.47633 55.6537 8ZM64.3279 4.81818H65.5608V11.5597C65.5608 12.2557 65.3968 12.8771 65.0686 13.424C64.7438 13.9676 64.2848 14.3968 63.6915 14.7116C63.0982 15.0232 62.4022 15.179 61.6034 15.179C60.8047 15.179 60.1086 15.0232 59.5154 14.7116C58.9221 14.3968 58.4614 13.9676 58.1333 13.424C57.8084 12.8771 57.646 12.2557 57.646 11.5597V4.81818H58.879V11.4602C58.879 11.9574 58.9884 12.3999 59.2071 12.7876C59.4259 13.1721 59.7374 13.4754 60.1418 13.6974C60.5494 13.9162 61.0367 14.0256 61.6034 14.0256C62.1702 14.0256 62.6574 13.9162 63.0651 13.6974C63.4727 13.4754 63.7843 13.1721 63.9997 12.7876C64.2185 12.3999 64.3279 11.9574 64.3279 11.4602V4.81818ZM68.023 15V4.81818H71.4633C72.2588 4.81818 72.9117 4.95407 73.4221 5.22585C73.9326 5.49432 74.3104 5.86387 74.5557 6.33452C74.8009 6.80516 74.9236 7.34044 74.9236 7.94034C74.9236 8.54025 74.8009 9.07221 74.5557 9.53622C74.3104 10.0002 73.9342 10.3648 73.4271 10.63C72.92 10.8918 72.272 11.0227 71.4832 11.0227H68.6991V9.90909H71.4434C71.987 9.90909 72.4245 9.82955 72.7559 9.67045C73.0907 9.51136 73.3327 9.28598 73.4818 8.99432C73.6343 8.69934 73.7105 8.34801 73.7105 7.94034C73.7105 7.53267 73.6343 7.17637 73.4818 6.87145C73.3293 6.56652 73.0857 6.3312 72.751 6.16548C72.4162 5.99645 71.9738 5.91193 71.4236 5.91193H69.2559V15H68.023ZM72.8156 10.4261L75.3213 15H73.8895L71.4236 10.4261H72.8156ZM76.9781 15V4.81818H83.123V5.91193H78.211V9.35227H82.8048V10.446H78.211V13.9062H83.2025V15H76.9781ZM88.4873 15H85.3453V4.81818H88.6265C89.6142 4.81818 90.4594 5.02202 91.162 5.42969C91.8647 5.83404 92.4033 6.41572 92.7778 7.17472C93.1523 7.9304 93.3396 8.83523 93.3396 9.8892C93.3396 10.9498 93.1507 11.8629 92.7728 12.6286C92.395 13.3909 91.8448 13.9775 91.1222 14.3885C90.3997 14.7962 89.5214 15 88.4873 15ZM86.5782 13.9062H88.4078C89.2496 13.9062 89.9473 13.7438 90.5008 13.419C91.0543 13.0942 91.4669 12.6319 91.7387 12.032C92.0105 11.4321 92.1464 10.7178 92.1464 9.8892C92.1464 9.06723 92.0122 8.35961 91.7437 7.76633C91.4752 7.16974 91.0742 6.71236 90.5406 6.39418C90.007 6.07268 89.3424 5.91193 88.547 5.91193H86.5782V13.9062ZM99.3453 15V4.81818H102.905C103.614 4.81818 104.199 4.94081 104.66 5.18608C105.121 5.42803 105.464 5.7545 105.689 6.16548C105.914 6.57315 106.027 7.02557 106.027 7.52273C106.027 7.96023 105.949 8.3215 105.793 8.60653C105.641 8.89157 105.439 9.11695 105.187 9.28267C104.938 9.44839 104.668 9.57102 104.377 9.65057V9.75C104.688 9.76989 105.001 9.87926 105.316 10.0781C105.631 10.277 105.895 10.562 106.107 10.9332C106.319 11.3045 106.425 11.7585 106.425 12.2955C106.425 12.8059 106.309 13.2649 106.077 13.6726C105.845 14.0803 105.479 14.4034 104.978 14.642C104.478 14.8807 103.826 15 103.024 15H99.3453ZM100.578 13.9062H103.024C103.83 13.9062 104.401 13.7505 104.739 13.4389C105.081 13.1241 105.252 12.7429 105.252 12.2955C105.252 11.9508 105.164 11.6326 104.988 11.3409C104.812 11.0459 104.562 10.8106 104.237 10.6349C103.912 10.456 103.528 10.3665 103.084 10.3665H100.578V13.9062ZM100.578 9.29261H102.865C103.236 9.29261 103.571 9.2197 103.869 9.07386C104.171 8.92803 104.41 8.72254 104.585 8.45739C104.764 8.19223 104.854 7.88068 104.854 7.52273C104.854 7.07528 104.698 6.69579 104.386 6.38423C104.075 6.06937 103.581 5.91193 102.905 5.91193H100.578V9.29261ZM107.576 4.81818H108.988L111.812 9.57102H111.931L114.755 4.81818H116.167L112.488 10.804V15H111.255V10.804L107.576 4.81818ZM121.699 15V4.81818H125.139C125.938 4.81818 126.591 4.96236 127.098 5.25071C127.608 5.53575 127.986 5.92188 128.231 6.40909C128.477 6.89631 128.599 7.43987 128.599 8.03977C128.599 8.63968 128.477 9.1849 128.231 9.67543C127.989 10.166 127.615 10.5571 127.108 10.8487C126.601 11.1371 125.951 11.2812 125.159 11.2812H122.693V10.1875H125.119C125.666 10.1875 126.105 10.093 126.437 9.90412C126.768 9.7152 127.008 9.45999 127.158 9.13849C127.31 8.81368 127.386 8.44744 127.386 8.03977C127.386 7.6321 127.31 7.26752 127.158 6.94602C127.008 6.62453 126.766 6.37263 126.432 6.19034C126.097 6.00473 125.653 5.91193 125.099 5.91193H122.932V15H121.699ZM129.964 15H128.671L132.41 4.81818H133.683L137.421 15H136.129L133.086 6.42898H133.007L129.964 15ZM130.441 11.0227H135.652V12.1165H130.441V11.0227ZM137.093 4.81818H138.505L141.329 9.57102H141.448L144.272 4.81818H145.684L142.005 10.804V15H140.772V10.804L137.093 4.81818ZM152.847 7.36364C152.787 6.85985 152.545 6.46875 152.121 6.19034C151.697 5.91193 151.177 5.77273 150.56 5.77273C150.109 5.77273 149.715 5.84564 149.377 5.99148C149.042 6.13731 148.78 6.33783 148.591 6.59304C148.406 6.84825 148.313 7.13826 148.313 7.46307C148.313 7.73485 148.378 7.96851 148.507 8.16406C148.639 8.3563 148.808 8.51705 149.014 8.64631C149.219 8.77225 149.435 8.87666 149.66 8.95952C149.886 9.03906 150.093 9.10369 150.282 9.15341L151.316 9.43182C151.581 9.50142 151.876 9.59754 152.201 9.72017C152.529 9.8428 152.842 10.0102 153.14 10.2223C153.442 10.4311 153.691 10.6996 153.886 11.0277C154.082 11.3558 154.179 11.7585 154.179 12.2358C154.179 12.786 154.035 13.2831 153.747 13.7273C153.462 14.1714 153.044 14.5244 152.494 14.7862C151.947 15.0481 151.283 15.179 150.5 15.179C149.771 15.179 149.14 15.0613 148.606 14.826C148.076 14.5907 147.658 14.2625 147.353 13.8416C147.052 13.4207 146.881 12.9318 146.841 12.375H148.114C148.147 12.7595 148.276 13.0777 148.502 13.3295C148.731 13.5781 149.019 13.7637 149.367 13.8864C149.718 14.0057 150.096 14.0653 150.5 14.0653C150.971 14.0653 151.394 13.9891 151.768 13.8366C152.143 13.6809 152.439 13.4654 152.658 13.1903C152.877 12.9119 152.986 12.5871 152.986 12.2159C152.986 11.8778 152.892 11.6027 152.703 11.3906C152.514 11.1785 152.265 11.0062 151.957 10.8736C151.649 10.741 151.316 10.625 150.958 10.5256L149.705 10.1676C148.91 9.93892 148.28 9.61245 147.816 9.18821C147.352 8.76397 147.12 8.20881 147.12 7.52273C147.12 6.95265 147.274 6.45549 147.582 6.03125C147.894 5.60369 148.311 5.27225 148.835 5.03693C149.362 4.7983 149.95 4.67898 150.6 4.67898C151.256 4.67898 151.839 4.79664 152.35 5.03196C152.86 5.26397 153.265 5.58215 153.563 5.98651C153.865 6.39086 154.024 6.8499 154.04 7.36364H152.847ZM155.65 5.91193V4.81818H163.286V5.91193H160.084V15H158.851V5.91193H155.65ZM164.417 15H163.125L166.863 4.81818H168.136L171.875 15H170.582L167.539 6.42898H167.46L164.417 15ZM164.894 11.0227H170.105V12.1165H164.894V11.0227ZM181.175 8H179.942C179.869 7.64536 179.742 7.33381 179.559 7.06534C179.38 6.79688 179.162 6.5715 178.903 6.3892C178.648 6.2036 178.365 6.06439 178.053 5.97159C177.741 5.87879 177.417 5.83239 177.079 5.83239C176.462 5.83239 175.904 5.98816 175.403 6.29972C174.906 6.61127 174.51 7.07031 174.215 7.67685C173.923 8.28338 173.777 9.02746 173.777 9.90909C173.777 10.7907 173.923 11.5348 174.215 12.1413C174.51 12.7479 174.906 13.2069 175.403 13.5185C175.904 13.83 176.462 13.9858 177.079 13.9858C177.417 13.9858 177.741 13.9394 178.053 13.8466C178.365 13.7538 178.648 13.6162 178.903 13.4339C179.162 13.2483 179.38 13.0213 179.559 12.7528C179.742 12.4811 179.869 12.1695 179.942 11.8182H181.175C181.082 12.3385 180.913 12.8042 180.668 13.2152C180.423 13.6262 180.118 13.9759 179.753 14.2642C179.389 14.5492 178.979 14.7663 178.525 14.9155C178.075 15.0646 177.592 15.1392 177.079 15.1392C176.21 15.1392 175.438 14.9271 174.762 14.5028C174.086 14.0786 173.554 13.4754 173.166 12.6932C172.778 11.911 172.584 10.983 172.584 9.90909C172.584 8.83523 172.778 7.9072 173.166 7.125C173.554 6.3428 174.086 5.73958 174.762 5.31534C175.438 4.8911 176.21 4.67898 177.079 4.67898C177.592 4.67898 178.075 4.75355 178.525 4.9027C178.979 5.05185 179.389 5.2706 179.753 5.55895C180.118 5.84399 180.423 6.192 180.668 6.60298C180.913 7.01065 181.082 7.47633 181.175 8ZM183.168 15V4.81818H184.4V9.86932H184.52L189.094 4.81818H190.704L186.429 9.41193L190.704 15H189.213L185.673 10.267L184.4 11.6989V15H183.168Z" fill="#98A2B3"/>
</svg>
