<svg width="21" height="20" viewBox="0 0 21 20" fill="none" xmlns="http://www.w3.org/2000/svg">
<path d="M3 8.33333H18M6.33333 2.5V4.16667M14.6667 2.5V4.16667M5.66667 17.5H15.3333C16.2668 17.5 16.7335 17.5 17.09 17.3183C17.4036 17.1586 17.6586 16.9036 17.8183 16.59C18 16.2335 18 15.7668 18 14.8333V6.83333C18 5.89991 18 5.4332 17.8183 5.07668C17.6586 4.76308 17.4036 4.50811 17.09 4.34832C16.7335 4.16667 16.2668 4.16667 15.3333 4.16667H5.66667C4.73325 4.16667 4.26654 4.16667 3.91002 4.34832C3.59641 4.50811 3.34144 4.76308 3.18166 5.07668C3 5.4332 3 5.89991 3 6.83333V14.8333C3 15.7668 3 16.2335 3.18166 16.59C3.34144 16.9036 3.59641 17.1586 3.91002 17.3183C4.26654 17.5 4.73325 17.5 5.66667 17.5Z" stroke="#98A2B3" stroke-width="2" stroke-linecap="round" stroke-linejoin="round"/>
</svg>
