<svg width="24" height="24" viewBox="0 0 24 24" fill="none" xmlns="http://www.w3.org/2000/svg">
<g id="Notification">
<path id="Vector" d="M18.9038 15.75L17.5163 13.9238C17.492 13.8913 17.4788 13.8519 17.4788 13.8113V8.65505C17.4951 7.21267 16.9566 5.81918 15.9746 4.76254C14.9927 3.70591 13.6423 3.06689 12.2026 2.97755C11.4514 2.93887 10.7003 3.05349 9.99483 3.31442C9.28938 3.57535 8.64443 3.97714 8.09925 4.49531C7.55406 5.01348 7.12005 5.6372 6.82363 6.32848C6.52722 7.01976 6.37461 7.76415 6.37509 8.5163V14.0025C6.37509 14.0431 6.36193 14.0826 6.33759 14.115L5.10759 15.75C4.88753 15.9917 4.74237 16.292 4.68975 16.6146C4.63712 16.9371 4.67929 17.268 4.81115 17.5671C4.943 17.8661 5.15885 18.1205 5.43249 18.2992C5.70612 18.4779 6.02577 18.5733 6.35259 18.5738H17.6476C17.9754 18.5755 18.2965 18.4817 18.5719 18.3038C18.8472 18.1259 19.0648 17.8717 19.198 17.5722C19.3313 17.2728 19.3744 16.941 19.3222 16.6174C19.2699 16.2938 19.1246 15.9924 18.9038 15.75ZM18.1538 17.1C18.1114 17.201 18.0399 17.2869 17.9484 17.3471C17.8569 17.4072 17.7496 17.4387 17.6401 17.4375H6.35259C6.2449 17.4356 6.14005 17.4027 6.05049 17.3428C5.96094 17.283 5.89045 17.1987 5.8474 17.1C5.80435 17.0012 5.79055 16.8922 5.80765 16.7859C5.82475 16.6795 5.87202 16.5803 5.94384 16.5L5.98509 16.4513L7.24884 14.7863C7.41398 14.5585 7.50201 14.2839 7.50009 14.0025V8.5163C7.50009 7.93492 7.61485 7.35926 7.83778 6.82232C8.06072 6.28539 8.38745 5.79774 8.79925 5.38734C9.21104 4.97694 9.69979 4.65186 10.2375 4.43074C10.7752 4.20963 11.3512 4.09682 11.9326 4.0988H12.1501C13.3013 4.17462 14.3794 4.68969 15.1617 5.5376C15.944 6.38551 16.3708 7.5015 16.3538 8.65505V13.83C16.3538 14.1169 16.4473 14.396 16.6201 14.625L18.0226 16.47L18.0601 16.5113C18.1355 16.591 18.1854 16.6914 18.2035 16.7996C18.2215 16.9078 18.2068 17.019 18.1613 17.1188L18.1538 17.1ZM14.2201 20.0288C13.9387 20.3443 13.5937 20.5967 13.2079 20.7696C12.8221 20.9424 12.4041 21.0318 11.9813 21.0318C11.5586 21.0318 11.1406 20.9424 10.7548 20.7696C10.3689 20.5967 10.024 20.3443 9.74259 20.0288C9.65257 19.9166 9.60896 19.7742 9.62071 19.6308C9.63245 19.4875 9.69868 19.3541 9.80576 19.258C9.91284 19.162 10.0526 19.1106 10.1964 19.1145C10.3402 19.1183 10.4771 19.1771 10.5788 19.2788C10.7547 19.4764 10.9705 19.6346 11.2119 19.7429C11.4533 19.8513 11.7149 19.9073 11.9795 19.9073C12.2441 19.9073 12.5056 19.8513 12.747 19.7429C12.9884 19.6346 13.2042 19.4764 13.3801 19.2788C13.4819 19.1771 13.6187 19.1183 13.7625 19.1145C13.9063 19.1106 14.0461 19.162 14.1532 19.258C14.2603 19.3541 14.3265 19.4875 14.3382 19.6308C14.35 19.7742 14.3064 19.9166 14.2163 20.0288H14.2201Z" fill="black"/>
</g>
</svg>
