<svg width="84" height="84" viewBox="0 0 84 84" fill="none" xmlns="http://www.w3.org/2000/svg">
<path d="M42 10.5C35.7699 10.5 29.6797 12.3474 24.4996 15.8087C19.3194 19.27 15.282 24.1896 12.8978 29.9455C10.5136 35.7013 9.88984 42.0349 11.1053 48.1453C12.3207 54.2557 15.3208 59.8685 19.7262 64.2739C24.1315 68.6792 29.7443 71.6793 35.8547 72.8947C41.9651 74.1102 48.2987 73.4864 54.0545 71.1022C59.8104 68.718 64.73 64.6806 68.1913 59.5005C71.6526 54.3203 73.5 48.2301 73.5 42C73.5 33.6457 70.1813 25.6335 64.2739 19.7261C58.3665 13.8187 50.3543 10.5 42 10.5ZM56.8575 35.6737L42 50.505C40.5234 51.9797 38.5219 52.8081 36.435 52.8081C34.3481 52.8081 32.3466 51.9797 30.87 50.505L27.1425 46.8037C26.8978 46.559 26.7036 46.2684 26.5712 45.9487C26.4387 45.6289 26.3705 45.2861 26.3705 44.94C26.3705 44.5939 26.4387 44.2511 26.5712 43.9313C26.7036 43.6116 26.8978 43.321 27.1425 43.0762C27.3873 42.8315 27.6778 42.6374 27.9976 42.5049C28.3174 42.3724 28.6601 42.3043 29.0063 42.3043C29.3524 42.3043 29.6951 42.3724 30.0149 42.5049C30.3347 42.6374 30.6253 42.8315 30.87 43.0762L34.5713 46.8037C34.8153 47.0498 35.1056 47.2451 35.4255 47.3783C35.7454 47.5116 36.0885 47.5802 36.435 47.5802C36.7815 47.5802 37.1246 47.5116 37.4445 47.3783C37.7644 47.2451 38.0547 47.0498 38.2988 46.8037L53.13 31.9463C53.3748 31.7015 53.6653 31.5074 53.9851 31.3749C54.3049 31.2424 54.6476 31.1743 54.9938 31.1743C55.3399 31.1743 55.6826 31.2424 56.0024 31.3749C56.3222 31.5074 56.6128 31.7015 56.8575 31.9463C57.1023 32.191 57.2964 32.4816 57.4289 32.8013C57.5613 33.1211 57.6295 33.4639 57.6295 33.81C57.6295 34.1561 57.5613 34.4989 57.4289 34.8187C57.2964 35.1384 57.1023 35.429 56.8575 35.6737Z" fill="#34A853"/>
</svg>
